{
  "accessors": [
    {
      "bufferView": 2,
      "componentType": 5126,
      "count": 703,
      "max": [
        0.6072165966033936,
        0.7909737825393677,
        1.0133240222930908
      ],
      "min": [
        -0.6072165966033936,
        -0.8255794048309326,
        0.0
      ],
      "type": "VEC3"
    },
    {
      "bufferView": 2,
      "byteOffset": 8436,
      "componentType": 5126,
      "count": 703,
      "max": [
        1.0,
        1.0,
        1.0
      ],
      "min": [
        -1.0,
        -1.0,
        -1.0
      ],
      "type": "VEC3"
    },
    {
      "bufferView": 1,
      "componentType": 5126,
      "count": 703,
      "max": [
        0.779944658279419,
        0.875
      ],
      "min": [
        0.25,
        0.375
      ],
      "type": "VEC2"
    },
    {
      "bufferView": 0,
      "componentType": 5125,
      "count": 1542,
      "type": "SCALAR"
    },
    {
      "bufferView": 2,
      "byteOffset": 16872,
      "componentType": 5126,
      "count": 1093,
      "max": [
        0.5939180850982666,
        0.926403284072876,
        0.5612871646881104
      ],
      "min": [
        -2.753695011138916,
        -0.926403284072876,
        -0.561286985874176
      ],
      "type": "VEC3"
    },
    {
      "bufferView": 2,
      "byteOffset": 29988,
      "componentType": 5126,
      "count": 1093,
      "max": [
        1.0,
        1.0,
        1.0
      ],
      "min": [
        -1.0,
        -1.0,
        -1.0
      ],
      "type": "VEC3"
    },
    {
      "bufferView": 1,
      "byteOffset": 5624,
      "componentType": 5126,
      "count": 1093,
      "max": [
        0.875,
        1.0
      ],
      "min": [
        0.0,
        0.0
      ],
      "type": "VEC2"
    },
    {
      "bufferView": 0,
      "byteOffset": 6168,
      "componentType": 5125,
      "count": 2091,
      "type": "SCALAR"
    },
    {
      "bufferView": 2,
      "byteOffset": 43104,
      "componentType": 5126,
      "count": 144,
      "max": [
        0.5718892812728882,
        0.11923974007368088,
        0.10910064727067947
      ],
      "min": [
        -0.5719438195228577,
        -0.7453953623771667,
        -0.10910064727067947
      ],
      "type": "VEC3"
    },
    {
      "bufferView": 2,
      "byteOffset": 44832,
      "componentType": 5126,
      "count": 144,
      "max": [
        1.0,
        1.0,
        1.0
      ],
      "min": [
        -1.0,
        -1.0,
        -1.0
      ],
      "type": "VEC3"
    },
    {
      "bufferView": 1,
      "byteOffset": 14368,
      "componentType": 5126,
      "count": 144,
      "max": [
        0.875,
        1.0
      ],
      "min": [
        0.125,
        0.0
      ],
      "type": "VEC2"
    },
    {
      "bufferView": 0,
      "byteOffset": 14532,
      "componentType": 5125,
      "count": 240,
      "type": "SCALAR"
    },
    {
      "bufferView": 2,
      "byteOffset": 46560,
      "componentType": 5126,
      "count": 48,
      "max": [
        0.09278051555156708,
        0.522091805934906,
        0.4126448631286621
      ],
      "min": [
        -2.2525575160980225,
        -0.5220916867256165,
        0.34962040185928345
      ],
      "type": "VEC3"
    },
    {
      "bufferView": 2,
      "byteOffset": 47136,
      "componentType": 5126,
      "count": 48,
      "max": [
        1.0,
        0.5996197462081909,
        0.9790453314781189
      ],
      "min": [
        -1.0,
        -0.5996196269989014,
        -1.0
      ],
      "type": "VEC3"
    },
    {
      "bufferView": 1,
      "byteOffset": 15520,
      "componentType": 5126,
      "count": 48,
      "max": [
        0.875,
        1.0
      ],
      "min": [
        0.5247920155525208,
        0.0
      ],
      "type": "VEC2"
    },
    {
      "bufferView": 0,
      "byteOffset": 15492,
      "componentType": 5125,
      "count": 72,
      "type": "SCALAR"
    },
    {
      "bufferView": 2,
      "byteOffset": 47712,
      "componentType": 5126,
      "count": 48,
      "max": [
        0.04230999946594238,
        0.525610625743866,
        0.02706688828766346
      ],
      "min": [
        -0.23151874542236328,
        -0.5580918788909912,
        -0.01670953445136547
      ],
      "type": "VEC3"
    },
    {
      "bufferView": 2,
      "byteOffset": 48288,
      "componentType": 5126,
      "count": 48,
      "max": [
        1.0,
        0.7794920802116394,
        1.0
      ],
      "min": [
        -1.0,
        -0.5465139150619507,
        -0.99993896484375
      ],
      "type": "VEC3"
    },
    {
      "bufferView": 1,
      "byteOffset": 15904,
      "componentType": 5126,
      "count": 48,
      "max": [
        0.875,
        1.0
      ],
      "min": [
        0.539574921131134,
        0.0
      ],
      "type": "VEC2"
    },
    {
      "bufferView": 0,
      "byteOffset": 15780,
      "componentType": 5125,
      "count": 72,
      "type": "SCALAR"
    },
    {
      "bufferView": 2,
      "byteOffset": 48864,
      "componentType": 5126,
      "count": 2776,
      "max": [
        1.586701512336731,
        1.5867042541503906,
        0.652418315410614
      ],
      "min": [
        -1.5867019891738892,
        -1.5866947174072266,
        -0.5649614334106445
      ],
      "type": "VEC3"
    },
    {
      "bufferView": 2,
      "byteOffset": 82176,
      "componentType": 5126,
      "count": 2776,
      "max": [
        1.0,
        1.0,
        1.0
      ],
      "min": [
        -1.0,
        -1.0,
        -1.0
      ],
      "type": "VEC3"
    },
    {
      "bufferView": 1,
      "byteOffset": 16288,
      "componentType": 5126,
      "count": 2776,
      "max": [
        1.0,
        1.0
      ],
      "min": [
        0.0,
        0.01000000536441803
      ],
      "type": "VEC2"
    },
    {
      "bufferView": 0,
      "byteOffset": 16068,
      "componentType": 5125,
      "count": 5940,
      "type": "SCALAR"
    },
    {
      "bufferView": 2,
      "byteOffset": 115488,
      "componentType": 5126,
      "count": 4944,
      "max": [
        0.5699717402458191,
        0.1879138946533203,
        0.06342411041259766
      ],
      "min": [
        -2.222041606903076,
        -0.37379080057144165,
        -0.4671233892440796
      ],
      "type": "VEC3"
    },
    {
      "bufferView": 2,
      "byteOffset": 174816,
      "componentType": 5126,
      "count": 4944,
      "max": [
        1.0,
        1.0,
        1.0
      ],
      "min": [
        -1.0,
        -1.0,
        -1.0
      ],
      "type": "VEC3"
    },
    {
      "bufferView": 1,
      "byteOffset": 38496,
      "componentType": 5126,
      "count": 4944,
      "max": [
        1.0,
        0.9540421962738037
      ],
      "min": [
        0.0,
        0.01000000536441803
      ],
      "type": "VEC2"
    },
    {
      "bufferView": 0,
      "byteOffset": 39828,
      "componentType": 5125,
      "count": 13536,
      "type": "SCALAR"
    }
  ],
  "asset": {
    "extras": {
      "author": "Ingoldt (https://sketchfab.com/nilsolejonack)",
      "license": "CC-BY-4.0 (http://creativecommons.org/licenses/by/4.0/)",
      "source": "https://sketchfab.com/3d-models/missile-turret-wip-f4e9d7edcb124c4ca298bd010778a513",
      "title": "Missile Turret - WIP"
    },
    "generator": "Sketchfab-16.61.0",
    "version": "2.0"
  },
  "bufferViews": [
    {
      "buffer": 0,
      "byteLength": 93972,
      "name": "floatBufferViews",
      "target": 34963
    },
    {
      "buffer": 0,
      "byteLength": 78048,
      "byteOffset": 93972,
      "byteStride": 8,
      "name": "floatBufferViews",
      "target": 34962
    },
    {
      "buffer": 0,
      "byteLength": 234144,
      "byteOffset": 172020,
      "byteStride": 12,
      "name": "floatBufferViews",
      "target": 34962
    }
  ],
  "buffers": [
    {
      "byteLength": 406164,
      "uri": "scene.bin"
    }
  ],
  "extensionsUsed": [
    "KHR_materials_specular"
  ],
  "materials": [
    {
      "doubleSided": true,
      "extensions": {
        "KHR_materials_specular": {
          "specularColorFactor": [
            1.0,
            1.0,
            1.0
          ],
          "specularFactor": 0.2118101693262303
        }
      },
      "name": "Scene_-_Root",
      "pbrMetallicRoughness": {
        "baseColorFactor": [
          0.30933427606636515,
          0.30933427606636515,
          0.30933427606636515,
          1.0
        ],
        "metallicFactor": 0.0
      }
    }
  ],
  "meshes": [
    {
      "name": "Cube.014__0",
      "primitives": [
        {
          "attributes": {
            "NORMAL": 1,
            "POSITION": 0,
            "TEXCOORD_0": 2
          },
          "indices": 3,
          "material": 0,
          "mode": 4
        }
      ]
    },
    {
      "name": "Cube.015__0",
      "primitives": [
        {
          "attributes": {
            "NORMAL": 5,
            "POSITION": 4,
            "TEXCOORD_0": 6
          },
          "indices": 7,
          "material": 0,
          "mode": 4
        }
      ]
    },
    {
      "name": "Cube.017__0",
      "primitives": [
        {
          "attributes": {
            "NORMAL": 9,
            "POSITION": 8,
            "TEXCOORD_0": 10
          },
          "indices": 11,
          "material": 0,
          "mode": 4
        }
      ]
    },
    {
      "name": "Cube.018__0",
      "primitives": [
        {
          "attributes": {
            "NORMAL": 13,
            "POSITION": 12,
            "TEXCOORD_0": 14
          },
          "indices": 15,
          "material": 0,
          "mode": 4
        }
      ]
    },
    {
      "name": "Cube.019__0",
      "primitives": [
        {
          "attributes": {
            "NORMAL": 17,
            "POSITION": 16,
            "TEXCOORD_0": 18
          },
          "indices": 19,
          "material": 0,
          "mode": 4
        }
      ]
    },
    {
      "name": "Cylinder.005__0",
      "primitives": [
        {
          "attributes": {
            "NORMAL": 21,
            "POSITION": 20,
            "TEXCOORD_0": 22
          },
          "indices": 23,
          "material": 0,
          "mode": 4
        }
      ]
    },
    {
      "name": "Cylinder.006__0",
      "primitives": [
        {
          "attributes": {
            "NORMAL": 25,
            "POSITION": 24,
            "TEXCOORD_0": 26
          },
          "indices": 27,
          "material": 0,
          "mode": 4
        }
      ]
    }
  ],
  "nodes": [
    {
      "children": [
        1
      ],
      "matrix": [
        1.0,
        0.0,
        0.0,
        0.0,
        0.0,
        2.220446049250313e-16,
        -1.0,
        0.0,
        0.0,
        1.0,
        2.220446049250313e-16,
        0.0,
        0.0,
        0.0,
        0.0,
        1.0
      ],
      "name": "Sketchfab_model"
    },
    {
      "children": [
        2
      ],
      "matrix": [
        0.009999999776482582,
        0.0,
        0.0,
        0.0,
        0.0,
        0.0,
        0.009999999776482582,
        0.0,
        0.0,
        -0.009999999776482582,
        0.0,
        0.0,
        0.0,
        0.0,
        0.0,
        1.0
      ],
      "name": "addfc35541ae4fa7b1c18648b77b365a.fbx"
    },
    {
      "children": [
        3,
        5,
        7,
        9,
        11,
        13,
        15
      ],
      "name": "RootNode"
    },
    {
      "children": [
        4
      ],
      "matrix": [
        100.0,
        0.0,
        0.0,
        0.0,
        -0.0,
        -1.629206793918314e-05,
        -99.99999999999868,
        0.0,
        0.0,
        99.99999999999868,
        -1.629206793918314e-05,
        0.0,
        -2.2288827896118164,
        122.07969665527344,
        -1.83868408203125,
        1.0
      ],
      "name": "Cube.014"
    },
    {
      "mesh": 0,
      "name": "Cube.014__0"
    },
    {
      "children": [
        6
      ],
      "matrix": [
        100.0,
        0.0,
        0.0,
        0.0,
        0.0,
        -1.629206793918314e-05,
        -99.99999999999868,
        0.0,
        0.0,
        99.99999999999868,
        -1.629206793918314e-05,
        0.0,
        105.75996398925781,
        203.00779724121094,
        -1.83868408203125,
        1.0
      ],
      "name": "Cube.015"
    },
    {
      "mesh": 1,
      "name": "Cube.015__0"
    },
    {
      "children": [
        8
      ],
      "matrix": [
        100.0,
        0.0,
        0.0,
        0.0,
        -0.0,
        -1.629206793918314e-05,
        -99.99999999999868,
        0.0,
        0.0,
        99.99999999999868,
        -1.629206793918314e-05,
        0.0,
        -2.2288827896118164,
        189.66453552246094,
        -38.11016082763672,
        1.0
      ],
      "name": "Cube.017"
    },
    {
      "mesh": 2,
      "name": "Cube.017__0"
    },
    {
      "children": [
        10
      ],
      "matrix": [
        100.0,
        0.0,
        0.0,
        0.0,
        0.0,
        -1.629206793918314e-05,
        -99.99999999999868,
        0.0,
        0.0,
        99.99999999999868,
        -1.629206793918314e-05,
        0.0,
        105.75996398925781,
        224.17445373535156,
        -13.046836853027344,
        1.0
      ],
      "name": "Cube.018"
    },
    {
      "mesh": 3,
      "name": "Cube.018__0"
    },
    {
      "children": [
        12
      ],
      "matrix": [
        100.0,
        0.0,
        0.0,
        0.0,
        0.0,
        -1.629206793918314e-05,
        -99.99999999999868,
        0.0,
        0.0,
        99.99999999999868,
        -1.629206793918314e-05,
        0.0,
        7.2315545082092285,
        224.92408752441406,
        -6.443214416503906,
        1.0
      ],
      "name": "Cube.019"
    },
    {
      "mesh": 4,
      "name": "Cube.019__0"
    },
    {
      "children": [
        14
      ],
      "matrix": [
        100.0,
        0.0,
        0.0,
        0.0,
        -0.0,
        -1.629206793918314e-05,
        -99.99999999999868,
        0.0,
        0.0,
        99.99999999999868,
        -1.629206793918314e-05,
        0.0,
        -2.2288858890533447,
        57.03922653198242,
        -6.443023681640625,
        1.0
      ],
      "name": "Cylinder.005"
    },
    {
      "mesh": 5,
      "name": "Cylinder.005__0"
    },
    {
      "children": [
        16
      ],
      "matrix": [
        100.0,
        0.0,
        0.0,
        0.0,
        0.0,
        -1.629206793918314e-05,
        -99.99999999999868,
        0.0,
        0.0,
        99.99999999999868,
        -1.629206793918314e-05,
        0.0,
        80.3746109008789,
        223.1139678955078,
        67.72079467773438,
        1.0
      ],
      "name": "Cylinder.006"
    },
    {
      "mesh": 6,
      "name": "Cylinder.006__0"
    }
  ],
  "scene": 0,
  "scenes": [
    {
      "name": "Sketchfab_Scene",
      "nodes": [
        0
      ]
    }
  ]
}
