{
  "accessors": [
    {
      "bufferView": 2,
      "componentType": 5126,
      "count": 7680,
      "max": [
        1.9485348463058472,
        1.022857666015625,
        1.9846580028533936
      ],
      "min": [
        -1.9485348463058472,
        -1.0000001192092896,
        -1.9846580028533936
      ],
      "type": "VEC3"
    },
    {
      "bufferView": 2,
      "byteOffset": 92160,
      "componentType": 5126,
      "count": 7680,
      "max": [
        1.0,
        1.0,
        1.0
      ],
      "min": [
        -1.0,
        -1.0,
        -1.0
      ],
      "type": "VEC3"
    },
    {
      "bufferView": 1,
      "componentType": 5126,
      "count": 7680,
      "max": [
        0.8750001192092896,
        1.0000001192092896
      ],
      "min": [
        0.1250000149011612,
        0.0
      ],
      "type": "VEC2"
    },
    {
      "bufferView": 0,
      "componentType": 5125,
      "count": 11520,
      "type": "SCALAR"
    },
    {
      "bufferView": 2,
      "byteOffset": 184320,
      "componentType": 5126,
      "count": 512,
      "max": [
        1.0,
        8.72097396850586,
        1.6123257875442505
      ],
      "min": [
        -1.0,
        -1.0,
        -1.0
      ],
      "type": "VEC3"
    },
    {
      "bufferView": 2,
      "byteOffset": 190464,
      "componentType": 5126,
      "count": 512,
      "max": [
        0.9996294975280762,
        0.8886594772338867,
        0.9980378746986389
      ],
      "min": [
        -0.999629557132721,
        -0.9987236261367798,
        -0.9990558624267578
      ],
      "type": "VEC3"
    },
    {
      "bufferView": 1,
      "byteOffset": 61440,
      "componentType": 5126,
      "count": 512,
      "max": [
        0.8750001192092896,
        1.0000001192092896
      ],
      "min": [
        0.1250000149011612,
        0.0
      ],
      "type": "VEC2"
    },
    {
      "bufferView": 0,
      "byteOffset": 46080,
      "componentType": 5125,
      "count": 768,
      "type": "SCALAR"
    },
    {
      "bufferView": 2,
      "byteOffset": 196608,
      "componentType": 5126,
      "count": 2438,
      "max": [
        1.0,
        16.844242095947266,
        1.0977134704589844
      ],
      "min": [
        -1.0,
        -0.5268253684043884,
        -4.974629878997803
      ],
      "type": "VEC3"
    },
    {
      "bufferView": 2,
      "byteOffset": 225864,
      "componentType": 5126,
      "count": 2438,
      "max": [
        1.0,
        0.9999708533287048,
        1.0
      ],
      "min": [
        -1.0,
        -1.0,
        -1.0
      ],
      "type": "VEC3"
    },
    {
      "bufferView": 1,
      "byteOffset": 65536,
      "componentType": 5126,
      "count": 2438,
      "max": [
        0.875,
        1.0
      ],
      "min": [
        0.125,
        0.0
      ],
      "type": "VEC2"
    },
    {
      "bufferView": 0,
      "byteOffset": 49152,
      "componentType": 5125,
      "count": 7053,
      "type": "SCALAR"
    },
    {
      "bufferView": 2,
      "byteOffset": 255120,
      "componentType": 5126,
      "count": 40,
      "max": [
        1.0,
        2.5060806274414063,
        8.074522018432617
      ],
      "min": [
        -1.0,
        -2.7571489810943604,
        -1.0
      ],
      "type": "VEC3"
    },
    {
      "bufferView": 2,
      "byteOffset": 255600,
      "componentType": 5126,
      "count": 40,
      "max": [
        1.0,
        1.0,
        1.0
      ],
      "min": [
        -1.0,
        -1.0,
        -1.0
      ],
      "type": "VEC3"
    },
    {
      "bufferView": 1,
      "byteOffset": 85040,
      "componentType": 5126,
      "count": 40,
      "max": [
        0.875,
        1.0
      ],
      "min": [
        0.125,
        0.0
      ],
      "type": "VEC2"
    },
    {
      "bufferView": 0,
      "byteOffset": 77364,
      "componentType": 5125,
      "count": 60,
      "type": "SCALAR"
    },
    {
      "bufferView": 2,
      "byteOffset": 256080,
      "componentType": 5126,
      "count": 407,
      "max": [
        1.0,
        1.0,
        1.0
      ],
      "min": [
        -1.0,
        -1.0,
        -1.0
      ],
      "type": "VEC3"
    },
    {
      "bufferView": 2,
      "byteOffset": 260964,
      "componentType": 5126,
      "count": 407,
      "max": [
        1.0,
        1.0,
        1.0
      ],
      "min": [
        -1.0,
        -1.0,
        -1.0
      ],
      "type": "VEC3"
    },
    {
      "bufferView": 1,
      "byteOffset": 85360,
      "componentType": 5126,
      "count": 407,
      "max": [
        0.875,
        1.0
      ],
      "min": [
        0.125,
        0.0
      ],
      "type": "VEC2"
    },
    {
      "bufferView": 0,
      "byteOffset": 77604,
      "componentType": 5125,
      "count": 1344,
      "type": "SCALAR"
    },
    {
      "bufferView": 2,
      "byteOffset": 265848,
      "componentType": 5126,
      "count": 4589,
      "max": [
        1.0,
        2.907832384109497,
        1.31380033493042
      ],
      "min": [
        -1.0,
        -0.4754485785961151,
        -1.8569812774658203
      ],
      "type": "VEC3"
    },
    {
      "bufferView": 2,
      "byteOffset": 320916,
      "componentType": 5126,
      "count": 4589,
      "max": [
        1.0,
        1.0,
        0.9967338442802429
      ],
      "min": [
        -1.0,
        -1.0,
        -0.9967338442802429
      ],
      "type": "VEC3"
    },
    {
      "bufferView": 1,
      "byteOffset": 88616,
      "componentType": 5126,
      "count": 4589,
      "max": [
        1.000000238418579,
        1.0
      ],
      "min": [
        0.0,
        0.0
      ],
      "type": "VEC2"
    },
    {
      "bufferView": 0,
      "byteOffset": 82980,
      "componentType": 5125,
      "count": 9036,
      "type": "SCALAR"
    },
    {
      "bufferView": 2,
      "byteOffset": 375984,
      "componentType": 5126,
      "count": 224,
      "max": [
        0.8660253882408142,
        4.199250221252441,
        0.5000000596046448
      ],
      "min": [
        -0.866025447845459,
        -1.0,
        -1.0000001192092896
      ],
      "type": "VEC3"
    },
    {
      "bufferView": 2,
      "byteOffset": 378672,
      "componentType": 5126,
      "count": 224,
      "max": [
        0.8719043731689453,
        1.0,
        1.0
      ],
      "min": [
        -0.8660255074501038,
        -1.0,
        -0.9999838471412659
      ],
      "type": "VEC3"
    },
    {
      "bufferView": 1,
      "byteOffset": 125328,
      "componentType": 5126,
      "count": 224,
      "max": [
        1.0,
        1.0
      ],
      "min": [
        -5.960464477539063e-08,
        0.0
      ],
      "type": "VEC2"
    },
    {
      "bufferView": 0,
      "byteOffset": 119124,
      "componentType": 5125,
      "count": 402,
      "type": "SCALAR"
    },
    {
      "bufferView": 2,
      "byteOffset": 381360,
      "componentType": 5126,
      "count": 24,
      "max": [
        1.0,
        1.0,
        1.0
      ],
      "min": [
        -1.0,
        -1.0,
        -1.0
      ],
      "type": "VEC3"
    },
    {
      "bufferView": 2,
      "byteOffset": 381648,
      "componentType": 5126,
      "count": 24,
      "max": [
        1.0,
        1.0,
        1.0
      ],
      "min": [
        -1.0,
        -1.0,
        -1.0
      ],
      "type": "VEC3"
    },
    {
      "bufferView": 1,
      "byteOffset": 127120,
      "componentType": 5126,
      "count": 24,
      "max": [
        0.875,
        1.0
      ],
      "min": [
        0.125,
        0.0
      ],
      "type": "VEC2"
    },
    {
      "bufferView": 0,
      "byteOffset": 120732,
      "componentType": 5125,
      "count": 36,
      "type": "SCALAR"
    },
    {
      "bufferView": 2,
      "byteOffset": 381936,
      "componentType": 5126,
      "count": 24,
      "max": [
        1.0,
        1.0,
        1.0
      ],
      "min": [
        -1.0,
        -1.0,
        -1.0
      ],
      "type": "VEC3"
    },
    {
      "bufferView": 2,
      "byteOffset": 382224,
      "componentType": 5126,
      "count": 24,
      "max": [
        1.0,
        1.0,
        1.0
      ],
      "min": [
        -1.0,
        -1.0,
        -1.0
      ],
      "type": "VEC3"
    },
    {
      "bufferView": 1,
      "byteOffset": 127312,
      "componentType": 5126,
      "count": 24,
      "max": [
        0.875,
        1.0
      ],
      "min": [
        0.125,
        0.0
      ],
      "type": "VEC2"
    },
    {
      "bufferView": 0,
      "byteOffset": 120876,
      "componentType": 5125,
      "count": 36,
      "type": "SCALAR"
    },
    {
      "bufferView": 2,
      "byteOffset": 382512,
      "componentType": 5126,
      "count": 24,
      "max": [
        1.0,
        1.0,
        1.0
      ],
      "min": [
        -1.0,
        -1.0,
        -1.0
      ],
      "type": "VEC3"
    },
    {
      "bufferView": 2,
      "byteOffset": 382800,
      "componentType": 5126,
      "count": 24,
      "max": [
        1.0,
        1.0,
        1.0
      ],
      "min": [
        -1.0,
        -1.0,
        -1.0
      ],
      "type": "VEC3"
    },
    {
      "bufferView": 1,
      "byteOffset": 127504,
      "componentType": 5126,
      "count": 24,
      "max": [
        0.875,
        1.0
      ],
      "min": [
        0.125,
        0.0
      ],
      "type": "VEC2"
    },
    {
      "bufferView": 0,
      "byteOffset": 121020,
      "componentType": 5125,
      "count": 36,
      "type": "SCALAR"
    },
    {
      "bufferView": 2,
      "byteOffset": 383088,
      "componentType": 5126,
      "count": 24,
      "max": [
        1.0,
        1.0,
        1.0
      ],
      "min": [
        -1.0,
        -1.0,
        -1.0
      ],
      "type": "VEC3"
    },
    {
      "bufferView": 2,
      "byteOffset": 383376,
      "componentType": 5126,
      "count": 24,
      "max": [
        1.0,
        1.0,
        1.0
      ],
      "min": [
        -1.0,
        -1.0,
        -1.0
      ],
      "type": "VEC3"
    },
    {
      "bufferView": 1,
      "byteOffset": 127696,
      "componentType": 5126,
      "count": 24,
      "max": [
        0.875,
        1.0
      ],
      "min": [
        0.125,
        0.0
      ],
      "type": "VEC2"
    },
    {
      "bufferView": 0,
      "byteOffset": 121164,
      "componentType": 5125,
      "count": 36,
      "type": "SCALAR"
    },
    {
      "bufferView": 2,
      "byteOffset": 383664,
      "componentType": 5126,
      "count": 24,
      "max": [
        1.0,
        1.0,
        1.0
      ],
      "min": [
        -1.0,
        -1.0,
        -1.0
      ],
      "type": "VEC3"
    },
    {
      "bufferView": 2,
      "byteOffset": 383952,
      "componentType": 5126,
      "count": 24,
      "max": [
        1.0,
        1.0,
        1.0
      ],
      "min": [
        -1.0,
        -1.0,
        -1.0
      ],
      "type": "VEC3"
    },
    {
      "bufferView": 1,
      "byteOffset": 127888,
      "componentType": 5126,
      "count": 24,
      "max": [
        0.875,
        1.0
      ],
      "min": [
        0.125,
        0.0
      ],
      "type": "VEC2"
    },
    {
      "bufferView": 0,
      "byteOffset": 121308,
      "componentType": 5125,
      "count": 36,
      "type": "SCALAR"
    },
    {
      "bufferView": 2,
      "byteOffset": 384240,
      "componentType": 5126,
      "count": 24,
      "max": [
        1.0,
        1.0,
        1.0
      ],
      "min": [
        -1.0,
        -1.0,
        -1.0
      ],
      "type": "VEC3"
    },
    {
      "bufferView": 2,
      "byteOffset": 384528,
      "componentType": 5126,
      "count": 24,
      "max": [
        1.0,
        1.0,
        1.0
      ],
      "min": [
        -1.0,
        -1.0,
        -1.0
      ],
      "type": "VEC3"
    },
    {
      "bufferView": 1,
      "byteOffset": 128080,
      "componentType": 5126,
      "count": 24,
      "max": [
        0.875,
        1.0
      ],
      "min": [
        0.125,
        0.0
      ],
      "type": "VEC2"
    },
    {
      "bufferView": 0,
      "byteOffset": 121452,
      "componentType": 5125,
      "count": 36,
      "type": "SCALAR"
    },
    {
      "bufferView": 2,
      "byteOffset": 384816,
      "componentType": 5126,
      "count": 1984,
      "max": [
        1.000000238418579,
        1.0,
        1.0000003576278687
      ],
      "min": [
        -0.9999998211860657,
        -1.0,
        -1.0
      ],
      "type": "VEC3"
    },
    {
      "bufferView": 2,
      "byteOffset": 408624,
      "componentType": 5126,
      "count": 1984,
      "max": [
        0.9904383420944214,
        0.9951384663581848,
        0.9904382824897766
      ],
      "min": [
        -0.9904382228851318,
        -0.9951384663581848,
        -0.9904384016990662
      ],
      "type": "VEC3"
    },
    {
      "bufferView": 1,
      "byteOffset": 128272,
      "componentType": 5126,
      "count": 1984,
      "max": [
        1.000000238418579,
        1.0
      ],
      "min": [
        0.0,
        0.0
      ],
      "type": "VEC2"
    },
    {
      "bufferView": 0,
      "byteOffset": 121596,
      "componentType": 5125,
      "count": 2880,
      "type": "SCALAR"
    },
    {
      "bufferView": 2,
      "byteOffset": 432432,
      "componentType": 5126,
      "count": 1984,
      "max": [
        1.000000238418579,
        1.0,
        1.0000003576278687
      ],
      "min": [
        -0.9999998211860657,
        -1.0,
        -1.0
      ],
      "type": "VEC3"
    },
    {
      "bufferView": 2,
      "byteOffset": 456240,
      "componentType": 5126,
      "count": 1984,
      "max": [
        0.9904383420944214,
        0.9951384663581848,
        0.9904382824897766
      ],
      "min": [
        -0.9904382228851318,
        -0.9951384663581848,
        -0.9904384016990662
      ],
      "type": "VEC3"
    },
    {
      "bufferView": 1,
      "byteOffset": 144144,
      "componentType": 5126,
      "count": 1984,
      "max": [
        1.000000238418579,
        1.0
      ],
      "min": [
        0.0,
        0.0
      ],
      "type": "VEC2"
    },
    {
      "bufferView": 0,
      "byteOffset": 133116,
      "componentType": 5125,
      "count": 2880,
      "type": "SCALAR"
    },
    {
      "bufferView": 2,
      "byteOffset": 480048,
      "componentType": 5126,
      "count": 1984,
      "max": [
        1.000000238418579,
        1.0,
        1.0000003576278687
      ],
      "min": [
        -0.9999998211860657,
        -1.0,
        -1.0
      ],
      "type": "VEC3"
    },
    {
      "bufferView": 2,
      "byteOffset": 503856,
      "componentType": 5126,
      "count": 1984,
      "max": [
        0.9904383420944214,
        0.9951384663581848,
        0.9904382824897766
      ],
      "min": [
        -0.9904382228851318,
        -0.9951384663581848,
        -0.9904384016990662
      ],
      "type": "VEC3"
    },
    {
      "bufferView": 1,
      "byteOffset": 160016,
      "componentType": 5126,
      "count": 1984,
      "max": [
        1.000000238418579,
        1.0
      ],
      "min": [
        0.0,
        0.0
      ],
      "type": "VEC2"
    },
    {
      "bufferView": 0,
      "byteOffset": 144636,
      "componentType": 5125,
      "count": 2880,
      "type": "SCALAR"
    },
    {
      "bufferView": 2,
      "byteOffset": 527664,
      "componentType": 5126,
      "count": 1984,
      "max": [
        1.000000238418579,
        1.0,
        1.0000003576278687
      ],
      "min": [
        -0.9999998211860657,
        -1.0,
        -1.0
      ],
      "type": "VEC3"
    },
    {
      "bufferView": 2,
      "byteOffset": 551472,
      "componentType": 5126,
      "count": 1984,
      "max": [
        0.9904383420944214,
        0.9951384663581848,
        0.9904382824897766
      ],
      "min": [
        -0.9904382228851318,
        -0.9951384663581848,
        -0.9904384016990662
      ],
      "type": "VEC3"
    },
    {
      "bufferView": 1,
      "byteOffset": 175888,
      "componentType": 5126,
      "count": 1984,
      "max": [
        1.000000238418579,
        1.0
      ],
      "min": [
        0.0,
        0.0
      ],
      "type": "VEC2"
    },
    {
      "bufferView": 0,
      "byteOffset": 156156,
      "componentType": 5125,
      "count": 2880,
      "type": "SCALAR"
    },
    {
      "bufferView": 2,
      "byteOffset": 575280,
      "componentType": 5126,
      "count": 1984,
      "max": [
        1.000000238418579,
        1.0,
        1.0000003576278687
      ],
      "min": [
        -0.9999998211860657,
        -1.0,
        -1.0
      ],
      "type": "VEC3"
    },
    {
      "bufferView": 2,
      "byteOffset": 599088,
      "componentType": 5126,
      "count": 1984,
      "max": [
        0.9904383420944214,
        0.9951384663581848,
        0.9904382824897766
      ],
      "min": [
        -0.9904382228851318,
        -0.9951384663581848,
        -0.9904384016990662
      ],
      "type": "VEC3"
    },
    {
      "bufferView": 1,
      "byteOffset": 191760,
      "componentType": 5126,
      "count": 1984,
      "max": [
        1.000000238418579,
        1.0
      ],
      "min": [
        0.0,
        0.0
      ],
      "type": "VEC2"
    },
    {
      "bufferView": 0,
      "byteOffset": 167676,
      "componentType": 5125,
      "count": 2880,
      "type": "SCALAR"
    },
    {
      "bufferView": 2,
      "byteOffset": 622896,
      "componentType": 5126,
      "count": 1984,
      "max": [
        1.000000238418579,
        1.0,
        1.0000003576278687
      ],
      "min": [
        -0.9999998211860657,
        -1.0,
        -1.0
      ],
      "type": "VEC3"
    },
    {
      "bufferView": 2,
      "byteOffset": 646704,
      "componentType": 5126,
      "count": 1984,
      "max": [
        0.9904383420944214,
        0.9951384663581848,
        0.9904382824897766
      ],
      "min": [
        -0.9904382228851318,
        -0.9951384663581848,
        -0.9904384016990662
      ],
      "type": "VEC3"
    },
    {
      "bufferView": 1,
      "byteOffset": 207632,
      "componentType": 5126,
      "count": 1984,
      "max": [
        1.000000238418579,
        1.0
      ],
      "min": [
        0.0,
        0.0
      ],
      "type": "VEC2"
    },
    {
      "bufferView": 0,
      "byteOffset": 179196,
      "componentType": 5125,
      "count": 2880,
      "type": "SCALAR"
    },
    {
      "bufferView": 2,
      "byteOffset": 670512,
      "componentType": 5126,
      "count": 187,
      "max": [
        0.11305530369281769,
        0.5314508080482483,
        0.10938149690628052
      ],
      "min": [
        -1.1728088855743408,
        -0.2976277470588684,
        -0.10938149690628052
      ],
      "type": "VEC3"
    },
    {
      "bufferView": 2,
      "byteOffset": 672756,
      "componentType": 5126,
      "count": 187,
      "max": [
        1.0,
        1.0,
        1.0
      ],
      "min": [
        -1.0,
        -1.0,
        -1.0
      ],
      "type": "VEC3"
    },
    {
      "bufferView": 1,
      "byteOffset": 223504,
      "componentType": 5126,
      "count": 187,
      "max": [
        0.875,
        1.0
      ],
      "min": [
        0.125,
        0.0
      ],
      "type": "VEC2"
    },
    {
      "bufferView": 0,
      "byteOffset": 190716,
      "componentType": 5125,
      "count": 324,
      "type": "SCALAR"
    }
  ],
  "asset": {
    "extras": {
      "author": "Fortyx (https://sketchfab.com/Fortyx)",
      "license": "CC-BY-4.0 (http://creativecommons.org/licenses/by/4.0/)",
      "source": "https://sketchfab.com/3d-models/turret-low-poly-89b4beeaeb604158a9d5b5670cac13a6",
      "title": "Turret-low-poly"
    },
    "generator": "Sketchfab-12.64.0",
    "version": "2.0"
  },
  "bufferViews": [
    {
      "buffer": 0,
      "byteLength": 192012,
      "name": "floatBufferViews",
      "target": 34963
    },
    {
      "buffer": 0,
      "byteLength": 225000,
      "byteOffset": 192012,
      "byteStride": 8,
      "name": "floatBufferViews",
      "target": 34962
    },
    {
      "buffer": 0,
      "byteLength": 675000,
      "byteOffset": 417012,
      "byteStride": 12,
      "name": "floatBufferViews",
      "target": 34962
    }
  ],
  "buffers": [
    {
      "byteLength": 1092012,
      "uri": "scene.bin"
    }
  ],
  "materials": [
    {
      "doubleSided": true,
      "name": "material_0",
      "pbrMetallicRoughness": {
        "metallicFactor": 0.0,
        "roughnessFactor": 0.6
      }
    },
    {
      "doubleSided": true,
      "name": "Material.002",
      "pbrMetallicRoughness": {
        "baseColorFactor": [
          0.239552,
          0.239552,
          0.239552,
          1.0
        ],
        "metallicFactor": 0.0,
        "roughnessFactor": 0.5
      }
    },
    {
      "doubleSided": true,
      "name": "Material.001",
      "pbrMetallicRoughness": {
        "baseColorFactor": [
          0.239552,
          0.239552,
          0.239552,
          1.0
        ],
        "metallicFactor": 0.0,
        "roughnessFactor": 0.5
      }
    },
    {
      "doubleSided": true,
      "name": "Material.008",
      "pbrMetallicRoughness": {
        "baseColorFactor": [
          0.239552,
          0.239552,
          0.239552,
          1.0
        ],
        "metallicFactor": 0.0,
        "roughnessFactor": 0.5
      }
    },
    {
      "doubleSided": true,
      "name": "Material.004",
      "pbrMetallicRoughness": {
        "baseColorFactor": [
          0.147314,
          0.147314,
          0.147314,
          1.0
        ],
        "metallicFactor": 0.0,
        "roughnessFactor": 0.5
      }
    },
    {
      "doubleSided": true,
      "name": "Material.006",
      "pbrMetallicRoughness": {
        "baseColorFactor": [
          0.167948,
          0.167948,
          0.167948,
          1.0
        ],
        "metallicFactor": 0.0,
        "roughnessFactor": 0.5
      }
    },
    {
      "doubleSided": true,
      "name": "Material.005",
      "pbrMetallicRoughness": {
        "baseColorFactor": [
          0.167948,
          0.167948,
          0.167948,
          1.0
        ],
        "metallicFactor": 0.0,
        "roughnessFactor": 0.5
      }
    },
    {
      "doubleSided": true,
      "name": "Material.003",
      "pbrMetallicRoughness": {
        "baseColorFactor": [
          0.147314,
          0.147314,
          0.147314,
          1.0
        ],
        "metallicFactor": 0.0,
        "roughnessFactor": 0.5
      }
    },
    {
      "doubleSided": true,
      "name": "Material.009",
      "pbrMetallicRoughness": {
        "baseColorFactor": [
          0.288296,
          0.288296,
          0.288296,
          1.0
        ],
        "metallicFactor": 0.0,
        "roughnessFactor": 0.5
      }
    },
    {
      "doubleSided": true,
      "name": "Material.011",
      "pbrMetallicRoughness": {
        "baseColorFactor": [
          0.288296,
          0.288296,
          0.288296,
          1.0
        ],
        "metallicFactor": 0.0,
        "roughnessFactor": 0.5
      }
    },
    {
      "doubleSided": true,
      "name": "Material.010",
      "pbrMetallicRoughness": {
        "baseColorFactor": [
          0.288296,
          0.288296,
          0.288296,
          1.0
        ],
        "metallicFactor": 0.0,
        "roughnessFactor": 0.5
      }
    },
    {
      "doubleSided": true,
      "name": "Material.012",
      "pbrMetallicRoughness": {
        "baseColorFactor": [
          0.288296,
          0.288296,
          0.288296,
          1.0
        ],
        "metallicFactor": 0.0,
        "roughnessFactor": 0.5
      }
    },
    {
      "doubleSided": true,
      "name": "Material.007",
      "pbrMetallicRoughness": {
        "baseColorFactor": [
          0.147314,
          0.147314,
          0.147314,
          1.0
        ],
        "metallicFactor": 0.0,
        "roughnessFactor": 0.5
      }
    }
  ],
  "meshes": [
    {
      "name": "Object_0",
      "primitives": [
        {
          "attributes": {
            "NORMAL": 1,
            "POSITION": 0,
            "TEXCOORD_0": 2
          },
          "indices": 3,
          "material": 1,
          "mode": 4
        }
      ]
    },
    {
      "name": "Object_1",
      "primitives": [
        {
          "attributes": {
            "NORMAL": 5,
            "POSITION": 4,
            "TEXCOORD_0": 6
          },
          "indices": 7,
          "material": 2,
          "mode": 4
        }
      ]
    },
    {
      "name": "Object_2",
      "primitives": [
        {
          "attributes": {
            "NORMAL": 9,
            "POSITION": 8,
            "TEXCOORD_0": 10
          },
          "indices": 11,
          "material": 3,
          "mode": 4
        }
      ]
    },
    {
      "name": "Object_3",
      "primitives": [
        {
          "attributes": {
            "NORMAL": 13,
            "POSITION": 12,
            "TEXCOORD_0": 14
          },
          "indices": 15,
          "material": 4,
          "mode": 4
        }
      ]
    },
    {
      "name": "Object_4",
      "primitives": [
        {
          "attributes": {
            "NORMAL": 17,
            "POSITION": 16,
            "TEXCOORD_0": 18
          },
          "indices": 19,
          "material": 5,
          "mode": 4
        }
      ]
    },
    {
      "name": "Object_5",
      "primitives": [
        {
          "attributes": {
            "NORMAL": 21,
            "POSITION": 20,
            "TEXCOORD_0": 22
          },
          "indices": 23,
          "material": 6,
          "mode": 4
        }
      ]
    },
    {
      "name": "Object_6",
      "primitives": [
        {
          "attributes": {
            "NORMAL": 25,
            "POSITION": 24,
            "TEXCOORD_0": 26
          },
          "indices": 27,
          "material": 7,
          "mode": 4
        }
      ]
    },
    {
      "name": "Object_7",
      "primitives": [
        {
          "attributes": {
            "NORMAL": 29,
            "POSITION": 28,
            "TEXCOORD_0": 30
          },
          "indices": 31,
          "material": 0,
          "mode": 4
        }
      ]
    },
    {
      "name": "Object_8",
      "primitives": [
        {
          "attributes": {
            "NORMAL": 33,
            "POSITION": 32,
            "TEXCOORD_0": 34
          },
          "indices": 35,
          "material": 0,
          "mode": 4
        }
      ]
    },
    {
      "name": "Object_9",
      "primitives": [
        {
          "attributes": {
            "NORMAL": 37,
            "POSITION": 36,
            "TEXCOORD_0": 38
          },
          "indices": 39,
          "material": 0,
          "mode": 4
        }
      ]
    },
    {
      "name": "Object_10",
      "primitives": [
        {
          "attributes": {
            "NORMAL": 41,
            "POSITION": 40,
            "TEXCOORD_0": 42
          },
          "indices": 43,
          "material": 0,
          "mode": 4
        }
      ]
    },
    {
      "name": "Object_11",
      "primitives": [
        {
          "attributes": {
            "NORMAL": 45,
            "POSITION": 44,
            "TEXCOORD_0": 46
          },
          "indices": 47,
          "material": 0,
          "mode": 4
        }
      ]
    },
    {
      "name": "Object_12",
      "primitives": [
        {
          "attributes": {
            "NORMAL": 49,
            "POSITION": 48,
            "TEXCOORD_0": 50
          },
          "indices": 51,
          "material": 0,
          "mode": 4
        }
      ]
    },
    {
      "name": "Object_13",
      "primitives": [
        {
          "attributes": {
            "NORMAL": 53,
            "POSITION": 52,
            "TEXCOORD_0": 54
          },
          "indices": 55,
          "material": 8,
          "mode": 4
        }
      ]
    },
    {
      "name": "Object_14",
      "primitives": [
        {
          "attributes": {
            "NORMAL": 57,
            "POSITION": 56,
            "TEXCOORD_0": 58
          },
          "indices": 59,
          "material": 9,
          "mode": 4
        }
      ]
    },
    {
      "name": "Object_15",
      "primitives": [
        {
          "attributes": {
            "NORMAL": 61,
            "POSITION": 60,
            "TEXCOORD_0": 62
          },
          "indices": 63,
          "material": 0,
          "mode": 4
        }
      ]
    },
    {
      "name": "Object_16",
      "primitives": [
        {
          "attributes": {
            "NORMAL": 65,
            "POSITION": 64,
            "TEXCOORD_0": 66
          },
          "indices": 67,
          "material": 0,
          "mode": 4
        }
      ]
    },
    {
      "name": "Object_17",
      "primitives": [
        {
          "attributes": {
            "NORMAL": 69,
            "POSITION": 68,
            "TEXCOORD_0": 70
          },
          "indices": 71,
          "material": 10,
          "mode": 4
        }
      ]
    },
    {
      "name": "Object_18",
      "primitives": [
        {
          "attributes": {
            "NORMAL": 73,
            "POSITION": 72,
            "TEXCOORD_0": 74
          },
          "indices": 75,
          "material": 11,
          "mode": 4
        }
      ]
    },
    {
      "name": "Object_19",
      "primitives": [
        {
          "attributes": {
            "NORMAL": 77,
            "POSITION": 76,
            "TEXCOORD_0": 78
          },
          "indices": 79,
          "material": 12,
          "mode": 4
        }
      ]
    }
  ],
  "nodes": [
    {
      "children": [
        1
      ],
      "matrix": [
        1.0,
        0.0,
        0.0,
        0.0,
        0.0,
        2.220446049250313e-16,
        -1.0,
        0.0,
        0.0,
        1.0,
        2.220446049250313e-16,
        0.0,
        0.0,
        0.0,
        0.0,
        1.0
      ],
      "name": "Sketchfab_model"
    },
    {
      "children": [
        2
      ],
      "name": "root"
    },
    {
      "children": [
        3,
        5,
        7,
        9,
        11,
        13,
        15,
        17,
        19,
        21,
        23,
        25,
        27,
        29,
        31,
        33,
        35,
        37,
        39,
        41
      ],
      "matrix": [
        1.0,
        0.0,
        0.0,
        0.0,
        0.0,
        2.220446049250313e-16,
        1.0,
        0.0,
        0.0,
        -1.0,
        2.220446049250313e-16,
        0.0,
        0.0,
        0.0,
        0.0,
        1.0
      ],
      "name": "GLTF_SceneRootNode"
    },
    {
      "children": [
        4
      ],
      "matrix": [
        1.9199833869934082,
        0.0,
        0.0,
        0.0,
        0.0,
        0.44737982749938965,
        0.0,
        0.0,
        0.0,
        0.0,
        1.9199833869934082,
        0.0,
        -0.22648358345031738,
        -0.1574709415435791,
        0.48241114616394043,
        1.0
      ],
      "name": "Cube_2"
    },
    {
      "mesh": 0,
      "name": "Object_4"
    },
    {
      "children": [
        6
      ],
      "matrix": [
        1.2853937149047852,
        0.0,
        0.0,
        0.0,
        0.0,
        0.05118304491043091,
        0.0,
        0.0,
        0.0,
        0.0,
        1.2853937149047852,
        0.0,
        -0.22648358345031738,
        0.31814831495285034,
        0.15170413255691528,
        1.0
      ],
      "name": "Cube.001_3"
    },
    {
      "mesh": 1,
      "name": "Object_6"
    },
    {
      "children": [
        8
      ],
      "matrix": [
        0.5518064498901367,
        0.0,
        0.0,
        0.0,
        0.0,
        0.21245834231376648,
        0.0,
        0.0,
        0.0,
        0.0,
        0.29699060320854187,
        0.0,
        -0.22648358345031738,
        0.7736518979072571,
        0.456719309091568,
        1.0
      ],
      "name": "Cube.002_4"
    },
    {
      "mesh": 2,
      "name": "Object_8"
    },
    {
      "children": [
        10
      ],
      "matrix": [
        0.4504314363002777,
        0.0,
        0.0,
        0.0,
        0.0,
        0.09312266856431961,
        0.0,
        0.0,
        0.0,
        0.0,
        0.4504314363002777,
        0.0,
        -0.22648358345031738,
        4.484992027282715,
        -0.3098076581954956,
        1.0
      ],
      "name": "Cube.003_5"
    },
    {
      "mesh": 3,
      "name": "Object_10"
    },
    {
      "children": [
        12
      ],
      "matrix": [
        1.2309190034866333,
        0.0,
        0.0,
        0.0,
        0.0,
        0.31308597326278687,
        0.0,
        0.0,
        0.0,
        0.0,
        0.5250773429870605,
        0.0,
        -0.22648358345031738,
        4.26216459274292,
        0.116909459233284,
        1.0
      ],
      "name": "Cube.004_6"
    },
    {
      "mesh": 4,
      "name": "Object_12"
    },
    {
      "children": [
        14
      ],
      "matrix": [
        1.0,
        0.0,
        0.0,
        0.0,
        -0.0,
        0.6735256874433804,
        -0.07356502912525503,
        0.0,
        0.0,
        0.026166637173719393,
        0.23956902484879924,
        0.0,
        -0.22648358345031738,
        3.225255250930786,
        1.2069189548492432,
        1.0
      ],
      "name": "Cube.005_7"
    },
    {
      "mesh": 5,
      "name": "Object_14"
    },
    {
      "children": [
        16
      ],
      "matrix": [
        -0.23053909838199002,
        3.7559586850470995e-08,
        -3.7559586850470995e-08,
        0.0,
        -3.7559586850470995e-08,
        3.0713977812001956e-15,
        0.23053909838199307,
        0.0,
        3.7559586850470995e-08,
        0.23053909838199307,
        3.0713977812001956e-15,
        0.0,
        -0.17272941768169403,
        4.4628496170043945,
        3.55263614654541,
        1.0
      ],
      "name": "Cylinder_8"
    },
    {
      "mesh": 6,
      "name": "Object_16"
    },
    {
      "children": [
        18
      ],
      "matrix": [
        -3.740705671858605e-09,
        1.026173340735344e-09,
        -0.04601655900478347,
        0.0,
        0.04247101866315074,
        0.07158426387150484,
        -1.8561517602785444e-09,
        0.0,
        -0.01570762713214747,
        0.00931935161449369,
        1.4847020632185491e-09,
        -0.0,
        -0.05977588891983032,
        4.412774085998535,
        4.1704936027526855,
        1.0
      ],
      "name": "Cube.006_9"
    },
    {
      "mesh": 7,
      "name": "Object_18"
    },
    {
      "children": [
        20
      ],
      "matrix": [
        -3.740705671858605e-09,
        1.026173340735344e-09,
        -0.04601655900478347,
        0.0,
        0.04247101866315074,
        0.07158426387150484,
        -1.8561517602785444e-09,
        0.0,
        -0.01570762713214747,
        0.00931935161449369,
        1.4847020632185491e-09,
        -0.0,
        -0.05977588891983032,
        4.412774085998535,
        4.051003456115723,
        1.0
      ],
      "name": "Cube.007_10"
    },
    {
      "mesh": 8,
      "name": "Object_20"
    },
    {
      "children": [
        22
      ],
      "matrix": [
        -3.740705671858605e-09,
        1.026173340735344e-09,
        -0.04601655900478347,
        0.0,
        0.04247101866315074,
        0.07158426387150484,
        -1.8561517602785444e-09,
        0.0,
        -0.01570762713214747,
        0.00931935161449369,
        1.4847020632185491e-09,
        -0.0,
        -0.05977588891983032,
        4.412774085998535,
        3.9328291416168213,
        1.0
      ],
      "name": "Cube.008_11"
    },
    {
      "mesh": 9,
      "name": "Object_22"
    },
    {
      "children": [
        24
      ],
      "matrix": [
        3.752632938923372e-09,
        9.816604610214916e-10,
        -0.04601655900478347,
        0.0,
        0.040758273525986745,
        -0.07257311760901403,
        1.775636454768144e-09,
        0.0,
        0.01592460981740503,
        0.00894352653043244,
        1.4894360505309223e-09,
        -0.0,
        -0.2845175564289093,
        4.412774085998535,
        4.1704936027526855,
        1.0
      ],
      "name": "Cube.011_12"
    },
    {
      "mesh": 10,
      "name": "Object_24"
    },
    {
      "children": [
        26
      ],
      "matrix": [
        3.752632938923372e-09,
        9.816604610214916e-10,
        -0.04601655900478347,
        0.0,
        0.040758273525986745,
        -0.07257311760901403,
        1.775636454768144e-09,
        0.0,
        0.01592460981740503,
        0.00894352653043244,
        1.4894360505309223e-09,
        -0.0,
        -0.2845175564289093,
        4.412774085998535,
        4.051003456115723,
        1.0
      ],
      "name": "Cube.010_13"
    },
    {
      "mesh": 11,
      "name": "Object_26"
    },
    {
      "children": [
        28
      ],
      "matrix": [
        3.752632938923372e-09,
        9.816604610214916e-10,
        -0.04601655900478347,
        0.0,
        0.040758273525986745,
        -0.07257311760901403,
        1.775636454768144e-09,
        0.0,
        0.01592460981740503,
        0.00894352653043244,
        1.4894360505309223e-09,
        -0.0,
        -0.2845175564289093,
        4.412774085998535,
        3.9328291416168213,
        1.0
      ],
      "name": "Cube.009_14"
    },
    {
      "mesh": 12,
      "name": "Object_28"
    },
    {
      "children": [
        30
      ],
      "matrix": [
        0.03660206124186516,
        0.0,
        0.0,
        0.0,
        0.0,
        0.03434810479036759,
        -0.009319889334818985,
        0.0,
        0.0,
        0.0007854515726554088,
        0.0028947524971712556,
        0.0,
        0.6796752214431763,
        4.898256301879883,
        1.1071443557739258,
        1.0
      ],
      "name": "Sphere_15"
    },
    {
      "mesh": 13,
      "name": "Object_30"
    },
    {
      "children": [
        32
      ],
      "matrix": [
        0.03660206124186516,
        0.0,
        0.0,
        0.0,
        -0.0,
        0.03434810479036759,
        -0.009319889334818985,
        0.0,
        0.0,
        0.0007854515726554088,
        0.0028947524971712556,
        0.0,
        -1.128169059753418,
        4.898256301879883,
        1.1071443557739258,
        1.0
      ],
      "name": "Sphere.001_16"
    },
    {
      "mesh": 14,
      "name": "Object_32"
    },
    {
      "children": [
        34
      ],
      "matrix": [
        0.020180953666567802,
        0.0,
        0.0,
        0.0,
        0.0,
        0.019199843038782628,
        -0.00807898346732282,
        0.0,
        0.0,
        0.0018808572800496752,
        0.004469889646558724,
        0.0,
        0.7356459498405457,
        5.0863542556762695,
        1.043627142906189,
        1.0
      ],
      "name": "Sphere.002_17"
    },
    {
      "mesh": 15,
      "name": "Object_34"
    },
    {
      "children": [
        36
      ],
      "matrix": [
        0.023685947060585022,
        0.0,
        0.0,
        0.0,
        -0.0,
        0.022534437816510655,
        -0.00948212702558359,
        0.0,
        0.0,
        0.002207520827608801,
        0.0052462111806966675,
        0.0,
        -1.1788978576660156,
        5.0863542556762695,
        1.043627142906189,
        1.0
      ],
      "name": "Sphere.003_18"
    },
    {
      "mesh": 16,
      "name": "Object_36"
    },
    {
      "children": [
        38
      ],
      "matrix": [
        0.05387982726097107,
        0.0,
        0.0,
        0.0,
        0.0,
        0.0505619104947491,
        -0.013719284171400163,
        0.0,
        0.0,
        0.0011562189269025335,
        0.004261201762716631,
        0.0,
        0.6796752214431763,
        4.545596599578857,
        1.2030807733535767,
        1.0
      ],
      "name": "Sphere.005_19"
    },
    {
      "mesh": 17,
      "name": "Object_38"
    },
    {
      "children": [
        40
      ],
      "matrix": [
        0.06841831654310226,
        0.0,
        0.0,
        0.0,
        -0.0,
        0.06420512216911374,
        -0.017421183410168267,
        0.0,
        0.0,
        0.0014682036304460148,
        0.00541100975992837,
        0.0,
        -1.128169059753418,
        4.545596599578857,
        1.2030807733535767,
        1.0
      ],
      "name": "Sphere.004_20"
    },
    {
      "mesh": 18,
      "name": "Object_40"
    },
    {
      "children": [
        42
      ],
      "matrix": [
        0.36493849754333496,
        0.0,
        -0.0,
        0.0,
        -0.0,
        0.3177976015355383,
        -0.1707929346326715,
        0.0,
        0.0,
        0.3235655622583652,
        0.6020644814515412,
        0.0,
        -0.036196596920490265,
        4.685539722442627,
        -0.6770194172859192,
        1.0
      ],
      "name": "Cube.012_21"
    },
    {
      "mesh": 19,
      "name": "Object_42"
    }
  ],
  "scene": 0,
  "scenes": [
    {
      "name": "Sketchfab_Scene",
      "nodes": [
        0
      ]
    }
  ]
}
