{
	"asset":{
		"generator":"Khronos glTF Blender I/O v5.0.21",
		"version":"2.0"
	},
	"scene":0,
	"scenes":[
		{
			"name":"Scene",
			"nodes":[
				0,
				1,
				2,
				3,
				4,
				5,
				6,
				7,
				8,
				9,
				10,
				11,
				12,
				13,
				14,
				15,
				16,
				17,
				18,
				19,
				20,
				21,
				22,
				23,
				24,
				25,
				26,
				27,
				28,
				29,
				30,
				31,
				32,
				33,
				34,
				35
			]
		}
	],
	"nodes":[
		{
			"mesh":0,
			"name":"grass"
		},
		{
			"mesh":1,
			"name":"basetbe"
		},
		{
			"mesh":2,
			"name":"Cube"
		},
		{
			"mesh":3,
			"name":"Cube.001"
		},
		{
			"mesh":4,
			"name":"Cube.002"
		},
		{
			"mesh":5,
			"name":"Cube.003"
		},
		{
			"mesh":6,
			"name":"Cube.004"
		},
		{
			"mesh":7,
			"name":"Cube.005"
		},
		{
			"mesh":8,
			"name":"Cube.006"
		},
		{
			"mesh":9,
			"name":"Cube.007"
		},
		{
			"mesh":10,
			"name":"Cube.008"
		},
		{
			"mesh":11,
			"name":"Cube.009"
		},
		{
			"mesh":12,
			"name":"Cube.010"
		},
		{
			"mesh":13,
			"name":"Cube.011"
		},
		{
			"mesh":14,
			"name":"Cube.012"
		},
		{
			"mesh":15,
			"name":"Cube.013"
		},
		{
			"mesh":16,
			"name":"Cube.014"
		},
		{
			"mesh":17,
			"name":"Cube.015"
		},
		{
			"mesh":18,
			"name":"Cube.016"
		},
		{
			"mesh":19,
			"name":"Cube.017"
		},
		{
			"mesh":20,
			"name":"Cube.018"
		},
		{
			"mesh":21,
			"name":"Cube.019"
		},
		{
			"mesh":22,
			"name":"Cube.020"
		},
		{
			"mesh":23,
			"name":"Cube.021"
		},
		{
			"mesh":24,
			"name":"Cube.022"
		},
		{
			"mesh":25,
			"name":"Cube.023"
		},
		{
			"mesh":26,
			"name":"Cube.024"
		},
		{
			"mesh":27,
			"name":"Cube.025"
		},
		{
			"mesh":28,
			"name":"Cube.026"
		},
		{
			"mesh":29,
			"name":"Cylinder.001"
		},
		{
			"mesh":30,
			"name":"Cube.027"
		},
		{
			"mesh":31,
			"name":"Cube.028"
		},
		{
			"mesh":32,
			"name":"Cube.029"
		},
		{
			"mesh":33,
			"name":"Cube.030"
		},
		{
			"mesh":34,
			"name":"Cube.031"
		},
		{
			"mesh":35,
			"name":"grass.002"
		}
	],
	"materials":[
		{
			"doubleSided":true,
			"name":"GREEN GASS.003",
			"pbrMetallicRoughness":{
				"baseColorFactor":[
					0,
					0.12761175632476807,
					0.006732430774718523,
					1
				],
				"metallicFactor":0
			}
		},
		{
			"doubleSided":true,
			"name":"Material.003",
			"pbrMetallicRoughness":{
				"baseColorFactor":[
					0.291195273399353,
					0.291195273399353,
					0.291195273399353,
					1
				],
				"metallicFactor":0,
				"roughnessFactor":0.5
			}
		},
		{
			"doubleSided":true,
			"name":"Material.002",
			"pbrMetallicRoughness":{
				"baseColorFactor":[
					0.17012375593185425,
					0.010508653707802296,
					0.028739824891090393,
					1
				],
				"metallicFactor":0,
				"roughnessFactor":0.5
			}
		},
		{
			"doubleSided":true,
			"name":"buildinggrey",
			"pbrMetallicRoughness":{
				"baseColorFactor":[
					0.09935089945793152,
					0.09935089945793152,
					0.09935089945793152,
					1
				],
				"metallicFactor":0,
				"roughnessFactor":0.5
			}
		},
		{
			"doubleSided":true,
			"name":"buildinggrey.001",
			"pbrMetallicRoughness":{
				"baseColorFactor":[
					0.09935089945793152,
					0.09935089945793152,
					0.09935089945793152,
					1
				],
				"metallicFactor":0,
				"roughnessFactor":0.5
			}
		},
		{
			"doubleSided":true,
			"name":"buildinggrey.002",
			"pbrMetallicRoughness":{
				"baseColorFactor":[
					0.09935089945793152,
					0.09935089945793152,
					0.09935089945793152,
					1
				],
				"metallicFactor":0,
				"roughnessFactor":0.5
			}
		},
		{
			"doubleSided":true,
			"name":"buildinggrey.003",
			"pbrMetallicRoughness":{
				"baseColorFactor":[
					0.09935089945793152,
					0.09935089945793152,
					0.09935089945793152,
					1
				],
				"metallicFactor":0,
				"roughnessFactor":0.5
			}
		},
		{
			"doubleSided":true,
			"name":"buildinggrey.004",
			"pbrMetallicRoughness":{
				"baseColorFactor":[
					0.09935089945793152,
					0.09935089945793152,
					0.09935089945793152,
					1
				],
				"metallicFactor":0,
				"roughnessFactor":0.5
			}
		},
		{
			"doubleSided":true,
			"name":"buildinggrey.005",
			"pbrMetallicRoughness":{
				"baseColorFactor":[
					0.09935089945793152,
					0.09935089945793152,
					0.09935089945793152,
					1
				],
				"metallicFactor":0,
				"roughnessFactor":0.5
			}
		},
		{
			"doubleSided":true,
			"name":"buildinggrey.006",
			"pbrMetallicRoughness":{
				"baseColorFactor":[
					0.09935089945793152,
					0.09935089945793152,
					0.09935089945793152,
					1
				],
				"metallicFactor":0,
				"roughnessFactor":0.5
			}
		},
		{
			"doubleSided":true,
			"name":"buildinggrey.007",
			"pbrMetallicRoughness":{
				"baseColorFactor":[
					0.09935089945793152,
					0.09935089945793152,
					0.09935089945793152,
					1
				],
				"metallicFactor":0,
				"roughnessFactor":0.5
			}
		},
		{
			"doubleSided":true,
			"name":"buildinggrey.008",
			"pbrMetallicRoughness":{
				"baseColorFactor":[
					0.09935089945793152,
					0.09935089945793152,
					0.09935089945793152,
					1
				],
				"metallicFactor":0,
				"roughnessFactor":0.5
			}
		},
		{
			"doubleSided":true,
			"name":"buildinggrey.009",
			"pbrMetallicRoughness":{
				"baseColorFactor":[
					0.09935089945793152,
					0.09935089945793152,
					0.09935089945793152,
					1
				],
				"metallicFactor":0,
				"roughnessFactor":0.5
			}
		},
		{
			"doubleSided":true,
			"name":"buildinggrey.010",
			"pbrMetallicRoughness":{
				"baseColorFactor":[
					0.09935089945793152,
					0.09935089945793152,
					0.09935089945793152,
					1
				],
				"metallicFactor":0,
				"roughnessFactor":0.5
			}
		},
		{
			"doubleSided":true,
			"name":"buildinggrey.011",
			"pbrMetallicRoughness":{
				"baseColorFactor":[
					0.09935089945793152,
					0.09935089945793152,
					0.09935089945793152,
					1
				],
				"metallicFactor":0,
				"roughnessFactor":0.5
			}
		},
		{
			"doubleSided":true,
			"name":"buildinggrey.012",
			"pbrMetallicRoughness":{
				"baseColorFactor":[
					0.09935089945793152,
					0.09935089945793152,
					0.09935089945793152,
					1
				],
				"metallicFactor":0,
				"roughnessFactor":0.5
			}
		},
		{
			"doubleSided":true,
			"name":"buildinggrey.013",
			"pbrMetallicRoughness":{
				"baseColorFactor":[
					0.09935089945793152,
					0.09935089945793152,
					0.09935089945793152,
					1
				],
				"metallicFactor":0,
				"roughnessFactor":0.5
			}
		},
		{
			"doubleSided":true,
			"name":"buildinggrey.014",
			"pbrMetallicRoughness":{
				"baseColorFactor":[
					0.09935089945793152,
					0.09935089945793152,
					0.09935089945793152,
					1
				],
				"metallicFactor":0,
				"roughnessFactor":0.5
			}
		},
		{
			"doubleSided":true,
			"name":"buildinggrey.015",
			"pbrMetallicRoughness":{
				"baseColorFactor":[
					0.09935089945793152,
					0.09935089945793152,
					0.09935089945793152,
					1
				],
				"metallicFactor":0,
				"roughnessFactor":0.5
			}
		},
		{
			"doubleSided":true,
			"name":"Material.004",
			"pbrMetallicRoughness":{
				"baseColorFactor":[
					0.16006332635879517,
					0.11471779644489288,
					0.0918225646018982,
					1
				],
				"metallicFactor":0,
				"roughnessFactor":0.5
			}
		},
		{
			"doubleSided":true,
			"name":"pipe",
			"pbrMetallicRoughness":{
				"baseColorFactor":[
					0.03947360813617706,
					0.04063504561781883,
					0.054761335253715515,
					1
				],
				"metallicFactor":0,
				"roughnessFactor":0.5
			}
		},
		{
			"alphaMode":"BLEND",
			"doubleSided":true,
			"name":"tempwater",
			"pbrMetallicRoughness":{
				"baseColorFactor":[
					0.09541994333267212,
					0.4209936261177063,
					0.8000074625015259,
					0.5300546884536743
				],
				"metallicFactor":0,
				"roughnessFactor":0.5
			}
		},
		{
			"doubleSided":true,
			"name":"Material.005",
			"pbrMetallicRoughness":{
				"baseColorFactor":[
					0.2320321798324585,
					0.18870477378368378,
					0.2123849093914032,
					1
				],
				"metallicFactor":0,
				"roughnessFactor":0.5
			}
		},
		{
			"doubleSided":true,
			"name":"Material.006",
			"pbrMetallicRoughness":{
				"baseColorFactor":[
					0.8000074625015259,
					0.60086590051651,
					0.06738022714853287,
					1
				],
				"metallicFactor":0,
				"roughnessFactor":0.5
			}
		}
	],
	"meshes":[
		{
			"name":"Cube.002",
			"primitives":[
				{
					"attributes":{
						"POSITION":0,
						"NORMAL":1,
						"TEXCOORD_0":2
					},
					"indices":3,
					"material":0
				}
			]
		},
		{
			"name":"Cylinder.001",
			"primitives":[
				{
					"attributes":{
						"POSITION":4,
						"NORMAL":5,
						"TEXCOORD_0":6
					},
					"indices":7,
					"material":1
				}
			]
		},
		{
			"name":"Cube.004",
			"primitives":[
				{
					"attributes":{
						"POSITION":8,
						"NORMAL":9,
						"TEXCOORD_0":10
					},
					"indices":11,
					"material":2
				}
			]
		},
		{
			"name":"Cube.005",
			"primitives":[
				{
					"attributes":{
						"POSITION":12,
						"NORMAL":13,
						"TEXCOORD_0":14
					},
					"indices":15,
					"material":3
				}
			]
		},
		{
			"name":"Cube.006",
			"primitives":[
				{
					"attributes":{
						"POSITION":16,
						"NORMAL":17,
						"TEXCOORD_0":18
					},
					"indices":15,
					"material":3
				}
			]
		},
		{
			"name":"Cube.007",
			"primitives":[
				{
					"attributes":{
						"POSITION":19,
						"NORMAL":20,
						"TEXCOORD_0":21
					},
					"indices":22,
					"material":3
				}
			]
		},
		{
			"name":"Cube.008",
			"primitives":[
				{
					"attributes":{
						"POSITION":23,
						"NORMAL":24,
						"TEXCOORD_0":25
					},
					"indices":15,
					"material":3
				}
			]
		},
		{
			"name":"Cube.009",
			"primitives":[
				{
					"attributes":{
						"POSITION":26,
						"NORMAL":27,
						"TEXCOORD_0":28
					},
					"indices":15,
					"material":3
				}
			]
		},
		{
			"name":"Cube.010",
			"primitives":[
				{
					"attributes":{
						"POSITION":29,
						"NORMAL":30,
						"TEXCOORD_0":31
					},
					"indices":15,
					"material":3
				}
			]
		},
		{
			"name":"Cube.011",
			"primitives":[
				{
					"attributes":{
						"POSITION":32,
						"NORMAL":33,
						"TEXCOORD_0":34
					},
					"indices":15,
					"material":3
				}
			]
		},
		{
			"name":"Cube.012",
			"primitives":[
				{
					"attributes":{
						"POSITION":35,
						"NORMAL":36,
						"TEXCOORD_0":37
					},
					"indices":15,
					"material":3
				}
			]
		},
		{
			"name":"Cube.013",
			"primitives":[
				{
					"attributes":{
						"POSITION":38,
						"NORMAL":39,
						"TEXCOORD_0":40
					},
					"indices":15,
					"material":3
				}
			]
		},
		{
			"name":"Cube.014",
			"primitives":[
				{
					"attributes":{
						"POSITION":41,
						"NORMAL":42,
						"TEXCOORD_0":43
					},
					"indices":15,
					"material":3
				}
			]
		},
		{
			"name":"Cube.015",
			"primitives":[
				{
					"attributes":{
						"POSITION":44,
						"NORMAL":45,
						"TEXCOORD_0":46
					},
					"indices":15,
					"material":3
				}
			]
		},
		{
			"name":"Cube.016",
			"primitives":[
				{
					"attributes":{
						"POSITION":47,
						"NORMAL":48,
						"TEXCOORD_0":49
					},
					"indices":15,
					"material":4
				}
			]
		},
		{
			"name":"Cube.017",
			"primitives":[
				{
					"attributes":{
						"POSITION":50,
						"NORMAL":51,
						"TEXCOORD_0":52
					},
					"indices":15,
					"material":5
				}
			]
		},
		{
			"name":"Cube.018",
			"primitives":[
				{
					"attributes":{
						"POSITION":53,
						"NORMAL":54,
						"TEXCOORD_0":55
					},
					"indices":15,
					"material":6
				}
			]
		},
		{
			"name":"Cube.019",
			"primitives":[
				{
					"attributes":{
						"POSITION":56,
						"NORMAL":57,
						"TEXCOORD_0":58
					},
					"indices":15,
					"material":7
				}
			]
		},
		{
			"name":"Cube.020",
			"primitives":[
				{
					"attributes":{
						"POSITION":59,
						"NORMAL":60,
						"TEXCOORD_0":61
					},
					"indices":15,
					"material":8
				}
			]
		},
		{
			"name":"Cube.021",
			"primitives":[
				{
					"attributes":{
						"POSITION":62,
						"NORMAL":63,
						"TEXCOORD_0":64
					},
					"indices":15,
					"material":9
				}
			]
		},
		{
			"name":"Cube.022",
			"primitives":[
				{
					"attributes":{
						"POSITION":65,
						"NORMAL":66,
						"TEXCOORD_0":67
					},
					"indices":15,
					"material":10
				}
			]
		},
		{
			"name":"Cube.023",
			"primitives":[
				{
					"attributes":{
						"POSITION":68,
						"NORMAL":69,
						"TEXCOORD_0":70
					},
					"indices":15,
					"material":11
				}
			]
		},
		{
			"name":"Cube.024",
			"primitives":[
				{
					"attributes":{
						"POSITION":71,
						"NORMAL":72,
						"TEXCOORD_0":73
					},
					"indices":15,
					"material":12
				}
			]
		},
		{
			"name":"Cube.025",
			"primitives":[
				{
					"attributes":{
						"POSITION":74,
						"NORMAL":75,
						"TEXCOORD_0":76
					},
					"indices":22,
					"material":13
				}
			]
		},
		{
			"name":"Cube.026",
			"primitives":[
				{
					"attributes":{
						"POSITION":77,
						"NORMAL":78,
						"TEXCOORD_0":79
					},
					"indices":15,
					"material":14
				}
			]
		},
		{
			"name":"Cube.027",
			"primitives":[
				{
					"attributes":{
						"POSITION":80,
						"NORMAL":81,
						"TEXCOORD_0":82
					},
					"indices":15,
					"material":15
				}
			]
		},
		{
			"name":"Cube.028",
			"primitives":[
				{
					"attributes":{
						"POSITION":83,
						"NORMAL":84,
						"TEXCOORD_0":85
					},
					"indices":15,
					"material":16
				}
			]
		},
		{
			"name":"Cube.029",
			"primitives":[
				{
					"attributes":{
						"POSITION":86,
						"NORMAL":87,
						"TEXCOORD_0":88
					},
					"indices":15,
					"material":17
				}
			]
		},
		{
			"name":"Cube.030",
			"primitives":[
				{
					"attributes":{
						"POSITION":89,
						"NORMAL":90,
						"TEXCOORD_0":91
					},
					"indices":15,
					"material":18
				}
			]
		},
		{
			"name":"Cylinder.002",
			"primitives":[
				{
					"attributes":{
						"POSITION":92,
						"NORMAL":93,
						"TEXCOORD_0":94
					},
					"indices":95,
					"material":19
				}
			]
		},
		{
			"name":"Cube.031",
			"primitives":[
				{
					"attributes":{
						"POSITION":96,
						"NORMAL":97,
						"TEXCOORD_0":98
					},
					"indices":99,
					"material":20
				}
			]
		},
		{
			"name":"Cube.032",
			"primitives":[
				{
					"attributes":{
						"POSITION":100,
						"NORMAL":101,
						"TEXCOORD_0":102
					},
					"indices":103,
					"material":20
				}
			]
		},
		{
			"name":"Cube.034",
			"primitives":[
				{
					"attributes":{
						"POSITION":104,
						"NORMAL":105,
						"TEXCOORD_0":106
					},
					"indices":15,
					"material":21
				}
			]
		},
		{
			"name":"Cube.035",
			"primitives":[
				{
					"attributes":{
						"POSITION":107,
						"NORMAL":108,
						"TEXCOORD_0":109
					},
					"indices":15,
					"material":22
				}
			]
		},
		{
			"name":"Cube.036",
			"primitives":[
				{
					"attributes":{
						"POSITION":110,
						"NORMAL":111,
						"TEXCOORD_0":112
					},
					"indices":113,
					"material":23
				}
			]
		},
		{
			"name":"Cube.037",
			"primitives":[
				{
					"attributes":{
						"POSITION":114,
						"NORMAL":115,
						"TEXCOORD_0":116
					},
					"indices":3,
					"material":0
				}
			]
		}
	],
	"accessors":[
		{
			"bufferView":0,
			"componentType":5126,
			"count":24,
			"max":[
				6.340079307556152,
				0.04998016357421875,
				55.02999496459961
			],
			"min":[
				-46.033233642578125,
				-0.9500200152397156,
				-55.02123260498047
			],
			"type":"VEC3"
		},
		{
			"bufferView":1,
			"componentType":5126,
			"count":24,
			"type":"VEC3"
		},
		{
			"bufferView":2,
			"componentType":5126,
			"count":24,
			"type":"VEC2"
		},
		{
			"bufferView":3,
			"componentType":5123,
			"count":36,
			"type":"SCALAR"
		},
		{
			"bufferView":4,
			"componentType":5126,
			"count":1560,
			"max":[
				50,
				4,
				19.999998092651367
			],
			"min":[
				10.000001907348633,
				-0.5,
				-19.999998092651367
			],
			"type":"VEC3"
		},
		{
			"bufferView":5,
			"componentType":5126,
			"count":1560,
			"type":"VEC3"
		},
		{
			"bufferView":6,
			"componentType":5126,
			"count":1560,
			"type":"VEC2"
		},
		{
			"bufferView":7,
			"componentType":5123,
			"count":3504,
			"type":"SCALAR"
		},
		{
			"bufferView":8,
			"componentType":5126,
			"count":494,
			"max":[
				31,
				11.699999809265137,
				1
			],
			"min":[
				29,
				0.10000038146972656,
				-1
			],
			"type":"VEC3"
		},
		{
			"bufferView":9,
			"componentType":5126,
			"count":494,
			"type":"VEC3"
		},
		{
			"bufferView":10,
			"componentType":5126,
			"count":494,
			"type":"VEC2"
		},
		{
			"bufferView":11,
			"componentType":5123,
			"count":1476,
			"type":"SCALAR"
		},
		{
			"bufferView":12,
			"componentType":5126,
			"count":24,
			"max":[
				21,
				6.649580955505371,
				-4.889893531799316
			],
			"min":[
				19,
				-0.26837629079818726,
				-6.889893531799316
			],
			"type":"VEC3"
		},
		{
			"bufferView":13,
			"componentType":5126,
			"count":24,
			"type":"VEC3"
		},
		{
			"bufferView":14,
			"componentType":5126,
			"count":24,
			"type":"VEC2"
		},
		{
			"bufferView":15,
			"componentType":5123,
			"count":36,
			"type":"SCALAR"
		},
		{
			"bufferView":16,
			"componentType":5126,
			"count":24,
			"max":[
				23.091814041137695,
				6.591842174530029,
				0.8216285705566406
			],
			"min":[
				21.091814041137695,
				-0.26837629079818726,
				-1.1783714294433594
			],
			"type":"VEC3"
		},
		{
			"bufferView":17,
			"componentType":5126,
			"count":24,
			"type":"VEC3"
		},
		{
			"bufferView":18,
			"componentType":5126,
			"count":24,
			"type":"VEC2"
		},
		{
			"bufferView":19,
			"componentType":5126,
			"count":24,
			"max":[
				34.20985412597656,
				4.386124134063721,
				-4.490533828735352
			],
			"min":[
				32.182647705078125,
				-0.26837629079818726,
				-6.571769714355469
			],
			"type":"VEC3"
		},
		{
			"bufferView":20,
			"componentType":5126,
			"count":24,
			"type":"VEC3"
		},
		{
			"bufferView":21,
			"componentType":5126,
			"count":24,
			"type":"VEC2"
		},
		{
			"bufferView":22,
			"componentType":5123,
			"count":36,
			"type":"SCALAR"
		},
		{
			"bufferView":23,
			"componentType":5126,
			"count":24,
			"max":[
				25.700237274169922,
				2.0077786445617676,
				6.269986152648926
			],
			"min":[
				23.700237274169922,
				-0.26837629079818726,
				4.269986152648926
			],
			"type":"VEC3"
		},
		{
			"bufferView":24,
			"componentType":5126,
			"count":24,
			"type":"VEC3"
		},
		{
			"bufferView":25,
			"componentType":5126,
			"count":24,
			"type":"VEC2"
		},
		{
			"bufferView":26,
			"componentType":5126,
			"count":24,
			"max":[
				38.7292594909668,
				9.650328636169434,
				-12.613633155822754
			],
			"min":[
				36.7292594909668,
				-0.26837629079818726,
				-14.613633155822754
			],
			"type":"VEC3"
		},
		{
			"bufferView":27,
			"componentType":5126,
			"count":24,
			"type":"VEC3"
		},
		{
			"bufferView":28,
			"componentType":5126,
			"count":24,
			"type":"VEC2"
		},
		{
			"bufferView":29,
			"componentType":5126,
			"count":24,
			"max":[
				44.97919464111328,
				8.076030731201172,
				1.0525493621826172
			],
			"min":[
				42.97919464111328,
				-0.26837629079818726,
				-0.9474506378173828
			],
			"type":"VEC3"
		},
		{
			"bufferView":30,
			"componentType":5126,
			"count":24,
			"type":"VEC3"
		},
		{
			"bufferView":31,
			"componentType":5126,
			"count":24,
			"type":"VEC2"
		},
		{
			"bufferView":32,
			"componentType":5126,
			"count":24,
			"max":[
				17.224958419799805,
				7.470558166503906,
				8.983116149902344
			],
			"min":[
				15.224958419799805,
				-0.26837629079818726,
				6.9831156730651855
			],
			"type":"VEC3"
		},
		{
			"bufferView":33,
			"componentType":5126,
			"count":24,
			"type":"VEC3"
		},
		{
			"bufferView":34,
			"componentType":5126,
			"count":24,
			"type":"VEC2"
		},
		{
			"bufferView":35,
			"componentType":5126,
			"count":24,
			"max":[
				30.349672317504883,
				7.231616020202637,
				14.70313835144043
			],
			"min":[
				28.349672317504883,
				-0.26837629079818726,
				12.70313835144043
			],
			"type":"VEC3"
		},
		{
			"bufferView":36,
			"componentType":5126,
			"count":24,
			"type":"VEC3"
		},
		{
			"bufferView":37,
			"componentType":5126,
			"count":24,
			"type":"VEC2"
		},
		{
			"bufferView":38,
			"componentType":5126,
			"count":24,
			"max":[
				25.586288452148438,
				4.9358954429626465,
				-11.979074478149414
			],
			"min":[
				23.586288452148438,
				-0.26837629079818726,
				-13.979074478149414
			],
			"type":"VEC3"
		},
		{
			"bufferView":39,
			"componentType":5126,
			"count":24,
			"type":"VEC3"
		},
		{
			"bufferView":40,
			"componentType":5126,
			"count":24,
			"type":"VEC2"
		},
		{
			"bufferView":41,
			"componentType":5126,
			"count":24,
			"max":[
				20.55280113220215,
				4.9358954429626465,
				3.275599479675293
			],
			"min":[
				18.55280113220215,
				-0.26837629079818726,
				1.275599479675293
			],
			"type":"VEC3"
		},
		{
			"bufferView":42,
			"componentType":5126,
			"count":24,
			"type":"VEC3"
		},
		{
			"bufferView":43,
			"componentType":5126,
			"count":24,
			"type":"VEC2"
		},
		{
			"bufferView":44,
			"componentType":5126,
			"count":24,
			"max":[
				26.144447326660156,
				4.9358954429626465,
				13.089643478393555
			],
			"min":[
				24.144447326660156,
				-0.26837629079818726,
				11.089643478393555
			],
			"type":"VEC3"
		},
		{
			"bufferView":45,
			"componentType":5126,
			"count":24,
			"type":"VEC3"
		},
		{
			"bufferView":46,
			"componentType":5126,
			"count":24,
			"type":"VEC2"
		},
		{
			"bufferView":47,
			"componentType":5126,
			"count":24,
			"max":[
				25.966876983642578,
				6.649580955505371,
				1.6847143173217773
			],
			"min":[
				23.966876983642578,
				-0.26837629079818726,
				-0.31528568267822266
			],
			"type":"VEC3"
		},
		{
			"bufferView":48,
			"componentType":5126,
			"count":24,
			"type":"VEC3"
		},
		{
			"bufferView":49,
			"componentType":5126,
			"count":24,
			"type":"VEC2"
		},
		{
			"bufferView":50,
			"componentType":5126,
			"count":24,
			"max":[
				16.389360427856445,
				4.9358954429626465,
				-2.714716911315918
			],
			"min":[
				14.389360427856445,
				-0.26837629079818726,
				-4.714716911315918
			],
			"type":"VEC3"
		},
		{
			"bufferView":51,
			"componentType":5126,
			"count":24,
			"type":"VEC3"
		},
		{
			"bufferView":52,
			"componentType":5126,
			"count":24,
			"type":"VEC2"
		},
		{
			"bufferView":53,
			"componentType":5126,
			"count":24,
			"max":[
				23.277666091918945,
				8.076030731201172,
				10.822773933410645
			],
			"min":[
				21.277666091918945,
				-0.26837629079818726,
				8.822773933410645
			],
			"type":"VEC3"
		},
		{
			"bufferView":54,
			"componentType":5126,
			"count":24,
			"type":"VEC3"
		},
		{
			"bufferView":55,
			"componentType":5126,
			"count":24,
			"type":"VEC2"
		},
		{
			"bufferView":56,
			"componentType":5126,
			"count":24,
			"max":[
				22.453550338745117,
				6.649580955505371,
				-2.227834939956665
			],
			"min":[
				20.453550338745117,
				-0.26837629079818726,
				-4.227834701538086
			],
			"type":"VEC3"
		},
		{
			"bufferView":57,
			"componentType":5126,
			"count":24,
			"type":"VEC3"
		},
		{
			"bufferView":58,
			"componentType":5126,
			"count":24,
			"type":"VEC2"
		},
		{
			"bufferView":59,
			"componentType":5126,
			"count":24,
			"max":[
				18.847702026367188,
				4.9358954429626465,
				1.0160961151123047
			],
			"min":[
				16.847702026367188,
				-0.26837629079818726,
				-0.9839038848876953
			],
			"type":"VEC3"
		},
		{
			"bufferView":60,
			"componentType":5126,
			"count":24,
			"type":"VEC3"
		},
		{
			"bufferView":61,
			"componentType":5126,
			"count":24,
			"type":"VEC2"
		},
		{
			"bufferView":62,
			"componentType":5126,
			"count":24,
			"max":[
				28.54239273071289,
				7.231616020202637,
				-1.854513168334961
			],
			"min":[
				26.54239273071289,
				-0.26837629079818726,
				-3.854513168334961
			],
			"type":"VEC3"
		},
		{
			"bufferView":63,
			"componentType":5126,
			"count":24,
			"type":"VEC3"
		},
		{
			"bufferView":64,
			"componentType":5126,
			"count":24,
			"type":"VEC2"
		},
		{
			"bufferView":65,
			"componentType":5126,
			"count":24,
			"max":[
				28.866165161132812,
				9.650328636169434,
				-10.133987426757812
			],
			"min":[
				26.866165161132812,
				-0.26837629079818726,
				-12.133987426757812
			],
			"type":"VEC3"
		},
		{
			"bufferView":66,
			"componentType":5126,
			"count":24,
			"type":"VEC3"
		},
		{
			"bufferView":67,
			"componentType":5126,
			"count":24,
			"type":"VEC2"
		},
		{
			"bufferView":68,
			"componentType":5126,
			"count":24,
			"max":[
				25.13119888305664,
				6.649580955505371,
				-5.812472343444824
			],
			"min":[
				23.13119888305664,
				-0.26837629079818726,
				-7.812472343444824
			],
			"type":"VEC3"
		},
		{
			"bufferView":69,
			"componentType":5126,
			"count":24,
			"type":"VEC3"
		},
		{
			"bufferView":70,
			"componentType":5126,
			"count":24,
			"type":"VEC2"
		},
		{
			"bufferView":71,
			"componentType":5126,
			"count":24,
			"max":[
				14.044466972351074,
				4.9358954429626465,
				2.3401546478271484
			],
			"min":[
				12.044466972351074,
				-0.26837629079818726,
				0.34015464782714844
			],
			"type":"VEC3"
		},
		{
			"bufferView":72,
			"componentType":5126,
			"count":24,
			"type":"VEC3"
		},
		{
			"bufferView":73,
			"componentType":5126,
			"count":24,
			"type":"VEC2"
		},
		{
			"bufferView":74,
			"componentType":5126,
			"count":24,
			"max":[
				22.563526153564453,
				4.386124134063721,
				5.755921363830566
			],
			"min":[
				20.536319732666016,
				-0.26837629079818726,
				3.674685478210449
			],
			"type":"VEC3"
		},
		{
			"bufferView":75,
			"componentType":5126,
			"count":24,
			"type":"VEC3"
		},
		{
			"bufferView":76,
			"componentType":5126,
			"count":24,
			"type":"VEC2"
		},
		{
			"bufferView":77,
			"componentType":5126,
			"count":24,
			"max":[
				19.307388305664062,
				9.650328636169434,
				-8.0324125289917
			],
			"min":[
				17.307388305664062,
				-0.26837629079818726,
				-10.0324125289917
			],
			"type":"VEC3"
		},
		{
			"bufferView":78,
			"componentType":5126,
			"count":24,
			"type":"VEC3"
		},
		{
			"bufferView":79,
			"componentType":5126,
			"count":24,
			"type":"VEC2"
		},
		{
			"bufferView":80,
			"componentType":5126,
			"count":24,
			"max":[
				34.585899353027344,
				4.9358954429626465,
				8.15667724609375
			],
			"min":[
				32.585899353027344,
				-0.26837629079818726,
				6.156676769256592
			],
			"type":"VEC3"
		},
		{
			"bufferView":81,
			"componentType":5126,
			"count":24,
			"type":"VEC3"
		},
		{
			"bufferView":82,
			"componentType":5126,
			"count":24,
			"type":"VEC2"
		},
		{
			"bufferView":83,
			"componentType":5126,
			"count":24,
			"max":[
				19.8397216796875,
				4.9358954429626465,
				12.140544891357422
			],
			"min":[
				17.8397216796875,
				-0.26837629079818726,
				10.140544891357422
			],
			"type":"VEC3"
		},
		{
			"bufferView":84,
			"componentType":5126,
			"count":24,
			"type":"VEC3"
		},
		{
			"bufferView":85,
			"componentType":5126,
			"count":24,
			"type":"VEC2"
		},
		{
			"bufferView":86,
			"componentType":5126,
			"count":24,
			"max":[
				15.936896324157715,
				7.470558166503906,
				5.254514694213867
			],
			"min":[
				13.936896324157715,
				-0.26837629079818726,
				3.254514694213867
			],
			"type":"VEC3"
		},
		{
			"bufferView":87,
			"componentType":5126,
			"count":24,
			"type":"VEC3"
		},
		{
			"bufferView":88,
			"componentType":5126,
			"count":24,
			"type":"VEC2"
		},
		{
			"bufferView":89,
			"componentType":5126,
			"count":24,
			"max":[
				23.864694595336914,
				7.231616020202637,
				-8.769372940063477
			],
			"min":[
				21.864694595336914,
				-0.26837629079818726,
				-10.769372940063477
			],
			"type":"VEC3"
		},
		{
			"bufferView":90,
			"componentType":5126,
			"count":24,
			"type":"VEC3"
		},
		{
			"bufferView":91,
			"componentType":5126,
			"count":24,
			"type":"VEC2"
		},
		{
			"bufferView":92,
			"componentType":5126,
			"count":224,
			"max":[
				10.2322416305542,
				1.2839072942733765,
				1
			],
			"min":[
				8.2322416305542,
				-1.2259800434112549,
				-1
			],
			"type":"VEC3"
		},
		{
			"bufferView":93,
			"componentType":5126,
			"count":224,
			"type":"VEC3"
		},
		{
			"bufferView":94,
			"componentType":5126,
			"count":224,
			"type":"VEC2"
		},
		{
			"bufferView":95,
			"componentType":5123,
			"count":372,
			"type":"SCALAR"
		},
		{
			"bufferView":96,
			"componentType":5126,
			"count":44,
			"max":[
				10.133805274963379,
				3.45980167388916,
				0.206008180975914
			],
			"min":[
				9.083888053894043,
				1.1056287288665771,
				-0.206008180975914
			],
			"type":"VEC3"
		},
		{
			"bufferView":97,
			"componentType":5126,
			"count":44,
			"type":"VEC3"
		},
		{
			"bufferView":98,
			"componentType":5126,
			"count":44,
			"type":"VEC2"
		},
		{
			"bufferView":99,
			"componentType":5123,
			"count":84,
			"type":"SCALAR"
		},
		{
			"bufferView":100,
			"componentType":5126,
			"count":140,
			"max":[
				9.542656898498535,
				0.41420572996139526,
				2.8287811279296875
			],
			"min":[
				4.46238374710083,
				-2.81091570854187,
				-2.858830451965332
			],
			"type":"VEC3"
		},
		{
			"bufferView":101,
			"componentType":5126,
			"count":140,
			"type":"VEC3"
		},
		{
			"bufferView":102,
			"componentType":5126,
			"count":140,
			"type":"VEC2"
		},
		{
			"bufferView":103,
			"componentType":5123,
			"count":288,
			"type":"SCALAR"
		},
		{
			"bufferView":104,
			"componentType":5126,
			"count":24,
			"max":[
				10.743390083312988,
				0.02741488814353943,
				56.07863998413086
			],
			"min":[
				6.230425834655762,
				-2.1268951892852783,
				-56.07863998413086
			],
			"type":"VEC3"
		},
		{
			"bufferView":105,
			"componentType":5126,
			"count":24,
			"type":"VEC3"
		},
		{
			"bufferView":106,
			"componentType":5126,
			"count":24,
			"type":"VEC2"
		},
		{
			"bufferView":107,
			"componentType":5126,
			"count":24,
			"max":[
				5.883059501647949,
				0.764613687992096,
				-1.460821509361267
			],
			"min":[
				3.883059501647949,
				-0.08593028783798218,
				-3.800156593322754
			],
			"type":"VEC3"
		},
		{
			"bufferView":108,
			"componentType":5126,
			"count":24,
			"type":"VEC3"
		},
		{
			"bufferView":109,
			"componentType":5126,
			"count":24,
			"type":"VEC2"
		},
		{
			"bufferView":110,
			"componentType":5126,
			"count":70,
			"max":[
				5.6815619468688965,
				0.9243811368942261,
				-2.1165847778320312
			],
			"min":[
				4.013828754425049,
				0.6974902153015137,
				-3.065640926361084
			],
			"type":"VEC3"
		},
		{
			"bufferView":111,
			"componentType":5126,
			"count":70,
			"type":"VEC3"
		},
		{
			"bufferView":112,
			"componentType":5126,
			"count":70,
			"type":"VEC2"
		},
		{
			"bufferView":113,
			"componentType":5123,
			"count":132,
			"type":"SCALAR"
		},
		{
			"bufferView":114,
			"componentType":5126,
			"count":24,
			"max":[
				63.22148895263672,
				0.03354007005691528,
				55.02999496459961
			],
			"min":[
				10.673713684082031,
				-0.966460108757019,
				-55.02123260498047
			],
			"type":"VEC3"
		},
		{
			"bufferView":115,
			"componentType":5126,
			"count":24,
			"type":"VEC3"
		},
		{
			"bufferView":116,
			"componentType":5126,
			"count":24,
			"type":"VEC2"
		}
	],
	"bufferViews":[
		{
			"buffer":0,
			"byteLength":288,
			"byteOffset":0,
			"target":34962
		},
		{
			"buffer":0,
			"byteLength":288,
			"byteOffset":288,
			"target":34962
		},
		{
			"buffer":0,
			"byteLength":192,
			"byteOffset":576,
			"target":34962
		},
		{
			"buffer":0,
			"byteLength":72,
			"byteOffset":768,
			"target":34963
		},
		{
			"buffer":0,
			"byteLength":18720,
			"byteOffset":840,
			"target":34962
		},
		{
			"buffer":0,
			"byteLength":18720,
			"byteOffset":19560,
			"target":34962
		},
		{
			"buffer":0,
			"byteLength":12480,
			"byteOffset":38280,
			"target":34962
		},
		{
			"buffer":0,
			"byteLength":7008,
			"byteOffset":50760,
			"target":34963
		},
		{
			"buffer":0,
			"byteLength":5928,
			"byteOffset":57768,
			"target":34962
		},
		{
			"buffer":0,
			"byteLength":5928,
			"byteOffset":63696,
			"target":34962
		},
		{
			"buffer":0,
			"byteLength":3952,
			"byteOffset":69624,
			"target":34962
		},
		{
			"buffer":0,
			"byteLength":2952,
			"byteOffset":73576,
			"target":34963
		},
		{
			"buffer":0,
			"byteLength":288,
			"byteOffset":76528,
			"target":34962
		},
		{
			"buffer":0,
			"byteLength":288,
			"byteOffset":76816,
			"target":34962
		},
		{
			"buffer":0,
			"byteLength":192,
			"byteOffset":77104,
			"target":34962
		},
		{
			"buffer":0,
			"byteLength":72,
			"byteOffset":77296,
			"target":34963
		},
		{
			"buffer":0,
			"byteLength":288,
			"byteOffset":77368,
			"target":34962
		},
		{
			"buffer":0,
			"byteLength":288,
			"byteOffset":77656,
			"target":34962
		},
		{
			"buffer":0,
			"byteLength":192,
			"byteOffset":77944,
			"target":34962
		},
		{
			"buffer":0,
			"byteLength":288,
			"byteOffset":78136,
			"target":34962
		},
		{
			"buffer":0,
			"byteLength":288,
			"byteOffset":78424,
			"target":34962
		},
		{
			"buffer":0,
			"byteLength":192,
			"byteOffset":78712,
			"target":34962
		},
		{
			"buffer":0,
			"byteLength":72,
			"byteOffset":78904,
			"target":34963
		},
		{
			"buffer":0,
			"byteLength":288,
			"byteOffset":78976,
			"target":34962
		},
		{
			"buffer":0,
			"byteLength":288,
			"byteOffset":79264,
			"target":34962
		},
		{
			"buffer":0,
			"byteLength":192,
			"byteOffset":79552,
			"target":34962
		},
		{
			"buffer":0,
			"byteLength":288,
			"byteOffset":79744,
			"target":34962
		},
		{
			"buffer":0,
			"byteLength":288,
			"byteOffset":80032,
			"target":34962
		},
		{
			"buffer":0,
			"byteLength":192,
			"byteOffset":80320,
			"target":34962
		},
		{
			"buffer":0,
			"byteLength":288,
			"byteOffset":80512,
			"target":34962
		},
		{
			"buffer":0,
			"byteLength":288,
			"byteOffset":80800,
			"target":34962
		},
		{
			"buffer":0,
			"byteLength":192,
			"byteOffset":81088,
			"target":34962
		},
		{
			"buffer":0,
			"byteLength":288,
			"byteOffset":81280,
			"target":34962
		},
		{
			"buffer":0,
			"byteLength":288,
			"byteOffset":81568,
			"target":34962
		},
		{
			"buffer":0,
			"byteLength":192,
			"byteOffset":81856,
			"target":34962
		},
		{
			"buffer":0,
			"byteLength":288,
			"byteOffset":82048,
			"target":34962
		},
		{
			"buffer":0,
			"byteLength":288,
			"byteOffset":82336,
			"target":34962
		},
		{
			"buffer":0,
			"byteLength":192,
			"byteOffset":82624,
			"target":34962
		},
		{
			"buffer":0,
			"byteLength":288,
			"byteOffset":82816,
			"target":34962
		},
		{
			"buffer":0,
			"byteLength":288,
			"byteOffset":83104,
			"target":34962
		},
		{
			"buffer":0,
			"byteLength":192,
			"byteOffset":83392,
			"target":34962
		},
		{
			"buffer":0,
			"byteLength":288,
			"byteOffset":83584,
			"target":34962
		},
		{
			"buffer":0,
			"byteLength":288,
			"byteOffset":83872,
			"target":34962
		},
		{
			"buffer":0,
			"byteLength":192,
			"byteOffset":84160,
			"target":34962
		},
		{
			"buffer":0,
			"byteLength":288,
			"byteOffset":84352,
			"target":34962
		},
		{
			"buffer":0,
			"byteLength":288,
			"byteOffset":84640,
			"target":34962
		},
		{
			"buffer":0,
			"byteLength":192,
			"byteOffset":84928,
			"target":34962
		},
		{
			"buffer":0,
			"byteLength":288,
			"byteOffset":85120,
			"target":34962
		},
		{
			"buffer":0,
			"byteLength":288,
			"byteOffset":85408,
			"target":34962
		},
		{
			"buffer":0,
			"byteLength":192,
			"byteOffset":85696,
			"target":34962
		},
		{
			"buffer":0,
			"byteLength":288,
			"byteOffset":85888,
			"target":34962
		},
		{
			"buffer":0,
			"byteLength":288,
			"byteOffset":86176,
			"target":34962
		},
		{
			"buffer":0,
			"byteLength":192,
			"byteOffset":86464,
			"target":34962
		},
		{
			"buffer":0,
			"byteLength":288,
			"byteOffset":86656,
			"target":34962
		},
		{
			"buffer":0,
			"byteLength":288,
			"byteOffset":86944,
			"target":34962
		},
		{
			"buffer":0,
			"byteLength":192,
			"byteOffset":87232,
			"target":34962
		},
		{
			"buffer":0,
			"byteLength":288,
			"byteOffset":87424,
			"target":34962
		},
		{
			"buffer":0,
			"byteLength":288,
			"byteOffset":87712,
			"target":34962
		},
		{
			"buffer":0,
			"byteLength":192,
			"byteOffset":88000,
			"target":34962
		},
		{
			"buffer":0,
			"byteLength":288,
			"byteOffset":88192,
			"target":34962
		},
		{
			"buffer":0,
			"byteLength":288,
			"byteOffset":88480,
			"target":34962
		},
		{
			"buffer":0,
			"byteLength":192,
			"byteOffset":88768,
			"target":34962
		},
		{
			"buffer":0,
			"byteLength":288,
			"byteOffset":88960,
			"target":34962
		},
		{
			"buffer":0,
			"byteLength":288,
			"byteOffset":89248,
			"target":34962
		},
		{
			"buffer":0,
			"byteLength":192,
			"byteOffset":89536,
			"target":34962
		},
		{
			"buffer":0,
			"byteLength":288,
			"byteOffset":89728,
			"target":34962
		},
		{
			"buffer":0,
			"byteLength":288,
			"byteOffset":90016,
			"target":34962
		},
		{
			"buffer":0,
			"byteLength":192,
			"byteOffset":90304,
			"target":34962
		},
		{
			"buffer":0,
			"byteLength":288,
			"byteOffset":90496,
			"target":34962
		},
		{
			"buffer":0,
			"byteLength":288,
			"byteOffset":90784,
			"target":34962
		},
		{
			"buffer":0,
			"byteLength":192,
			"byteOffset":91072,
			"target":34962
		},
		{
			"buffer":0,
			"byteLength":288,
			"byteOffset":91264,
			"target":34962
		},
		{
			"buffer":0,
			"byteLength":288,
			"byteOffset":91552,
			"target":34962
		},
		{
			"buffer":0,
			"byteLength":192,
			"byteOffset":91840,
			"target":34962
		},
		{
			"buffer":0,
			"byteLength":288,
			"byteOffset":92032,
			"target":34962
		},
		{
			"buffer":0,
			"byteLength":288,
			"byteOffset":92320,
			"target":34962
		},
		{
			"buffer":0,
			"byteLength":192,
			"byteOffset":92608,
			"target":34962
		},
		{
			"buffer":0,
			"byteLength":288,
			"byteOffset":92800,
			"target":34962
		},
		{
			"buffer":0,
			"byteLength":288,
			"byteOffset":93088,
			"target":34962
		},
		{
			"buffer":0,
			"byteLength":192,
			"byteOffset":93376,
			"target":34962
		},
		{
			"buffer":0,
			"byteLength":288,
			"byteOffset":93568,
			"target":34962
		},
		{
			"buffer":0,
			"byteLength":288,
			"byteOffset":93856,
			"target":34962
		},
		{
			"buffer":0,
			"byteLength":192,
			"byteOffset":94144,
			"target":34962
		},
		{
			"buffer":0,
			"byteLength":288,
			"byteOffset":94336,
			"target":34962
		},
		{
			"buffer":0,
			"byteLength":288,
			"byteOffset":94624,
			"target":34962
		},
		{
			"buffer":0,
			"byteLength":192,
			"byteOffset":94912,
			"target":34962
		},
		{
			"buffer":0,
			"byteLength":288,
			"byteOffset":95104,
			"target":34962
		},
		{
			"buffer":0,
			"byteLength":288,
			"byteOffset":95392,
			"target":34962
		},
		{
			"buffer":0,
			"byteLength":192,
			"byteOffset":95680,
			"target":34962
		},
		{
			"buffer":0,
			"byteLength":288,
			"byteOffset":95872,
			"target":34962
		},
		{
			"buffer":0,
			"byteLength":288,
			"byteOffset":96160,
			"target":34962
		},
		{
			"buffer":0,
			"byteLength":192,
			"byteOffset":96448,
			"target":34962
		},
		{
			"buffer":0,
			"byteLength":2688,
			"byteOffset":96640,
			"target":34962
		},
		{
			"buffer":0,
			"byteLength":2688,
			"byteOffset":99328,
			"target":34962
		},
		{
			"buffer":0,
			"byteLength":1792,
			"byteOffset":102016,
			"target":34962
		},
		{
			"buffer":0,
			"byteLength":744,
			"byteOffset":103808,
			"target":34963
		},
		{
			"buffer":0,
			"byteLength":528,
			"byteOffset":104552,
			"target":34962
		},
		{
			"buffer":0,
			"byteLength":528,
			"byteOffset":105080,
			"target":34962
		},
		{
			"buffer":0,
			"byteLength":352,
			"byteOffset":105608,
			"target":34962
		},
		{
			"buffer":0,
			"byteLength":168,
			"byteOffset":105960,
			"target":34963
		},
		{
			"buffer":0,
			"byteLength":1680,
			"byteOffset":106128,
			"target":34962
		},
		{
			"buffer":0,
			"byteLength":1680,
			"byteOffset":107808,
			"target":34962
		},
		{
			"buffer":0,
			"byteLength":1120,
			"byteOffset":109488,
			"target":34962
		},
		{
			"buffer":0,
			"byteLength":576,
			"byteOffset":110608,
			"target":34963
		},
		{
			"buffer":0,
			"byteLength":288,
			"byteOffset":111184,
			"target":34962
		},
		{
			"buffer":0,
			"byteLength":288,
			"byteOffset":111472,
			"target":34962
		},
		{
			"buffer":0,
			"byteLength":192,
			"byteOffset":111760,
			"target":34962
		},
		{
			"buffer":0,
			"byteLength":288,
			"byteOffset":111952,
			"target":34962
		},
		{
			"buffer":0,
			"byteLength":288,
			"byteOffset":112240,
			"target":34962
		},
		{
			"buffer":0,
			"byteLength":192,
			"byteOffset":112528,
			"target":34962
		},
		{
			"buffer":0,
			"byteLength":840,
			"byteOffset":112720,
			"target":34962
		},
		{
			"buffer":0,
			"byteLength":840,
			"byteOffset":113560,
			"target":34962
		},
		{
			"buffer":0,
			"byteLength":560,
			"byteOffset":114400,
			"target":34962
		},
		{
			"buffer":0,
			"byteLength":264,
			"byteOffset":114960,
			"target":34963
		},
		{
			"buffer":0,
			"byteLength":288,
			"byteOffset":115224,
			"target":34962
		},
		{
			"buffer":0,
			"byteLength":288,
			"byteOffset":115512,
			"target":34962
		},
		{
			"buffer":0,
			"byteLength":192,
			"byteOffset":115800,
			"target":34962
		}
	],
	"buffers":[
		{
			"byteLength":115992,
			"uri":"Hackathon1.bin"
		}
	]
}
